<?xml version="1.0" standalone="no"?>
<!DOCTYPE svg PUBLIC "-//W3C//DTD SVG 1.1//EN" "http://www.w3.org/Graphics/SVG/1.1/DTD/svg11.dtd" >
<svg xmlns="http://www.w3.org/2000/svg">
<metadata>
This is a custom SVG webfont generated by Font Squirrel.
Copyright   : Copyright 19901998 Bitstream Inc  All rights reserved
</metadata>
<defs>
<font id="webfont00JRSI9L" horiz-adv-x="1024" >
<font-face units-per-em="2048" ascent="1556" descent="-492" />
<missing-glyph horiz-adv-x="569" />
<glyph unicode=" "  horiz-adv-x="569" />
<glyph unicode="&#x09;" horiz-adv-x="569" />
<glyph unicode="&#xa0;" horiz-adv-x="569" />
<glyph unicode="!" horiz-adv-x="692" d="M63 127q0 61 43.5 104t104.5 43q62 0 105.5 -43t43.5 -104q0 -63 -43 -106.5t-106 -43.5t-105.5 43.5t-42.5 106.5zM324 496l-78 12q22 132 33.5 260.5t11.5 259.5q0 82 -6 177t-6 108q0 108 40.5 158.5t126.5 50.5q79 0 121.5 -38t42.5 -108q0 -57 -67 -209 q-42 -95 -64 -153q-32 -85 -68.5 -205t-86.5 -313z" />
<glyph unicode="&#x22;" horiz-adv-x="717" d="M553 846h-45l-84 463q-3 15 -3.5 22.5t-0.5 14.5q0 54 29.5 86t80.5 32t81 -31.5t30 -84.5q0 -16 -0.5 -24.5t-1.5 -15.5zM207 846h-43l-86 462q-3 16 -3.5 23.5t-0.5 14.5q0 54 29.5 86t80.5 32q52 0 82.5 -31.5t30.5 -84.5q0 -8 -1 -17t-3 -22z" />
<glyph unicode="#" horiz-adv-x="1575" d="M705 844l-84 -236h253l84 236h-253zM684 1466h248l-139 -393h241l140 393h247l-139 -393h270l-86 -229h-266l-82 -234h277l-84 -229h-275l-141 -393h-248l141 393h-241l-141 -393h-248l141 393h-276l86 229h272l82 234h-285l86 229h281z" />
<glyph unicode="$" horiz-adv-x="1139" d="M625 1395q-92 -8 -148.5 -72.5t-56.5 -161.5q0 -60 31 -111t94 -96zM584 631l-92 -527h4q111 0 174 69t63 189q0 80 -39 150t-110 119zM674 1683h92l-35 -198q164 -33 251 -112.5t87 -194.5q0 -74 -41 -120t-106 -46q-58 0 -91.5 32.5t-33.5 88.5q0 41 40 82.5t40 60.5 q0 35 -43 66.5t-113 46.5l-94 -494q189 -109 269.5 -223t80.5 -269q0 -190 -130.5 -296.5t-365.5 -106.5h-12l-47 -266h-92l49 280q-159 32 -249.5 121t-90.5 213q0 80 40 128t105 48q54 0 90.5 -35.5t36.5 -89.5q0 -48 -35.5 -98.5t-35.5 -67.5q0 -35 45 -70t110 -44 l101 565q-161 95 -232 194t-71 224q0 186 116 287.5t330 101.5z" />
<glyph unicode="%" horiz-adv-x="1896" d="M1593 745q-50 0 -97.5 -44t-92.5 -132q-52 -102 -80.5 -190t-28.5 -143q0 -68 33.5 -105t93.5 -37q45 0 88.5 22.5t81.5 65.5q69 76 109.5 184.5t40.5 215.5q0 76 -39.5 119.5t-108.5 43.5zM1071 299q0 92 30.5 179.5t88.5 158.5q75 95 170.5 144.5t202.5 49.5 q115 0 181 -69.5t66 -192.5q0 -92 -33 -190.5t-94 -185.5q-64 -94 -150 -143.5t-183 -49.5q-128 0 -203.5 80.5t-75.5 218.5zM624 1399q-4 1 -8.5 1.5t-13.5 0.5q-41 0 -76.5 -30t-79.5 -103q-56 -101 -90 -206.5t-34 -176.5q0 -67 33 -104.5t91 -37.5q120 0 212 145.5 t92 352.5q0 29 -0.5 43t-2.5 27q-43 19 -72.5 40t-50.5 48zM1237 1346q-67 -45 -135.5 -69t-130.5 -24q-32 0 -69.5 8.5t-82.5 24.5v-41q0 -259 -128 -427.5t-318 -168.5q-132 0 -209.5 79t-77.5 214q0 92 36.5 185t102.5 171q73 88 164.5 136.5t183.5 48.5q68 0 120.5 -27 t97.5 -84q47 -25 92 -37t88 -12q93 0 190 50t182 143h101l-862 -1543h-109z" />
<glyph unicode="&#x26;" horiz-adv-x="1655" d="M492 772q-67 -53 -98.5 -120t-31.5 -154q0 -181 80.5 -295.5t206.5 -114.5q34 0 74 9.5t90 29.5q-108 122 -190 287t-131 358zM754 1014q96 39 151.5 119t55.5 180q0 53 -27.5 87t-69.5 34q-65 0 -104 -62t-39 -168q0 -37 8 -83.5t25 -106.5zM782 920q52 -186 121.5 -348 t157.5 -302q89 94 139.5 188t50.5 163q0 33 -36.5 47t-127.5 14v96h484v-96h-6q-61 0 -107 -31.5t-88 -101.5l-30 -49q-148 -243 -228 -316q33 -51 69.5 -74.5t84.5 -23.5q66 0 129.5 41t115.5 119l56 -51q-69 -109 -166.5 -165.5t-216.5 -56.5q-84 0 -157.5 21.5 t-131.5 62.5q-76 -44 -170.5 -66t-206.5 -22q-225 0 -353 109.5t-128 300.5q0 159 104 281t322 219q-15 67 -23 125t-8 106q0 188 115.5 300t308.5 112q135 0 212 -63t77 -173q0 -121 -88 -210t-275 -156z" />
<glyph unicode="'" horiz-adv-x="371" d="M207 846h-43l-86 462q-3 16 -3.5 23.5t-0.5 14.5q0 53 31 85.5t81 32.5q51 0 81 -31.5t30 -84.5q0 -8 -1 -17t-3 -22z" />
<glyph unicode="(" horiz-adv-x="758" d="M891 1522v-60q-124 -62 -218 -170.5t-163 -269.5q-72 -172 -113 -373.5t-41 -386.5q0 -145 37.5 -280t114.5 -271l-74 -2q-156 204 -230.5 395.5t-74.5 389.5q0 192 71.5 375t207.5 337q100 113 225 194.5t258 121.5z" />
<glyph unicode=")" horiz-adv-x="758" d="M-158 -293v60q124 62 218.5 170.5t162.5 269.5q72 172 113 373.5t41 386.5q0 145 -37 279.5t-115 271.5l74 2q157 -207 231 -397t74 -388q0 -193 -71.5 -376.5t-206.5 -335.5q-101 -113 -226 -194.5t-258 -121.5z" />
<glyph unicode="*" d="M573 1073v-6q0 -82 41 -176t41 -119q0 -42 -27 -68t-71 -26q-45 0 -71.5 25.5t-26.5 68.5q0 27 41 117.5t41 171.5v14l-20 -14q-71 -52 -113 -110q-4 -6 -10 -14q-72 -101 -130 -101q-33 0 -63.5 34.5t-30.5 73.5q0 38 31 65.5t77 30.5q10 1 29 2q140 10 213 60 q-88 51 -213 58q-14 1 -20 1q-53 5 -84 31t-31 65q0 42 28.5 74.5t63.5 32.5q59 0 128 -99l9 -13q31 -44 62.5 -73t75.5 -53v7q0 82 -41 175.5t-41 118.5q0 42 27 68.5t71 26.5q45 0 70.5 -25.5t25.5 -69.5q0 -27 -40 -117t-40 -169l1 -16l21 15q72 51 114 109l12 18 q69 97 125 97q34 0 64 -34.5t30 -74.5q0 -36 -31.5 -64t-77.5 -32q-7 0 -24 -2q-143 -10 -217 -59q79 -49 197 -57l31 -3q60 -5 90 -30.5t30 -71.5q0 -36 -29 -68t-63 -32q-62 0 -127 99q-7 10 -10 15q-27 39 -58 67.5t-80 55.5z" />
<glyph unicode="+" horiz-adv-x="1706" d="M735 1221h238v-494h479v-231h-479v-496h-238v496h-481v231h481v494z" />
<glyph unicode="," horiz-adv-x="569" d="M-53 -301q129 46 199.5 105t70.5 122q0 29 -11 38t-42 9h-17q-53 0 -87.5 37t-34.5 94q0 61 43 103.5t104 42.5q81 0 126.5 -55t45.5 -154q0 -145 -95 -249.5t-280 -164.5z" />
<glyph unicode="-" horiz-adv-x="692" d="M63 657h512l-38 -227h-512z" />
<glyph unicode="." horiz-adv-x="569" d="M63 127q0 61 43.5 104t104.5 43q62 0 105.5 -43t43.5 -104q0 -63 -43 -106.5t-106 -43.5t-105.5 43.5t-42.5 106.5z" />
<glyph unicode="/" horiz-adv-x="573" d="M465 1520h127l-524 -1710h-127z" />
<glyph unicode="0" horiz-adv-x="1139" d="M475 66q55 0 95.5 53.5t76.5 175.5q24 81 45.5 184t46.5 266q23 152 32 248t9 174q0 145 -26.5 202.5t-89.5 57.5q-57 0 -99 -54.5t-76 -172.5q-23 -83 -45 -194t-45 -261q-23 -156 -32 -249.5t-9 -169.5q0 -146 26.5 -203t90.5 -57zM657 1518q197 0 302.5 -144.5 t105.5 -415.5q0 -205 -50 -395t-141 -334q-78 -123 -182 -188.5t-223 -65.5q-188 0 -292.5 144.5t-104.5 404.5q0 211 53.5 409t148.5 343q79 118 176.5 180t206.5 62z" />
<glyph unicode="1" horiz-adv-x="1139" d="M745 1493h107l-211 -1186q-6 -37 -8 -56t-2 -32q0 -74 42.5 -103.5t155.5 -31.5l-14 -84h-688l16 84h21q98 0 143.5 46t67.5 175l131 746q3 19 4.5 42t1.5 50q0 60 -37.5 84t-136.5 24q-35 0 -54.5 -0.5t-35.5 -0.5l14 77q196 13 311 53t172 113z" />
<glyph unicode="2" horiz-adv-x="1139" d="M262 227h350q108 0 162.5 39t75.5 131h100l-121 -397h-833l24 139q219 193 368.5 343.5t211.5 240.5q66 93 99.5 198.5t33.5 221.5q0 130 -58.5 204t-160.5 74q-69 0 -119.5 -33.5t-50.5 -74.5q0 -17 10.5 -31t38.5 -33q34 -22 47 -44t13 -56q0 -74 -42 -116t-114 -42 q-76 0 -121 51.5t-45 139.5q0 151 119.5 243.5t318.5 92.5q220 0 344.5 -102t124.5 -281q0 -78 -30 -152.5t-93 -151.5q-85 -105 -314 -302l-157 -136z" />
<glyph unicode="3" horiz-adv-x="1139" d="M696 825l-4 -24q149 -75 215 -164.5t66 -214.5q0 -194 -153.5 -321.5t-389.5 -127.5q-177 0 -294.5 90.5t-117.5 223.5q0 88 46 142t120 54q68 0 109 -36.5t41 -98.5q0 -34 -9 -56.5t-36 -49.5q-26 -26 -33.5 -42t-7.5 -36q0 -41 35.5 -64.5t97.5 -23.5 q128 0 205.5 110.5t77.5 294.5q0 149 -70.5 221t-216.5 72h-25l21 98q9 -1 19 -1.5t30 -0.5q164 0 253 85t89 241q0 107 -53 168t-146 61q-54 0 -84 -18t-30 -51q0 -15 24.5 -58.5t24.5 -78.5q0 -58 -35.5 -89.5t-99.5 -31.5q-70 0 -110 39.5t-40 107.5q0 121 111.5 197 t294.5 76q201 0 323.5 -93t122.5 -243q0 -126 -93.5 -216t-277.5 -141z" />
<glyph unicode="4" horiz-adv-x="1139" d="M825 1493h203l-160 -915h203l-24 -142h-203l-25 -129q-5 -23 -7.5 -45.5t-2.5 -42.5q0 -75 42 -104t156 -31l-14 -84h-686l15 84h22q100 0 144.5 42t70.5 179l25 131h-572l25 142zM723 1229l-526 -611l-11 -38h424l127 643z" />
<glyph unicode="5" horiz-adv-x="1139" d="M375 1493h717l-33 -199h-631l-88 -352l10 -6q45 31 98.5 46t118.5 15q196 0 308 -116t112 -320q0 -260 -156.5 -423t-406.5 -163q-187 0 -302.5 87t-115.5 223q0 87 44 138.5t118 51.5q58 0 95.5 -36t37.5 -93q0 -55 -40 -106t-40 -68q0 -40 42 -68t104 -28 q143 0 230 147.5t87 392.5q0 127 -47 199t-129 72q-50 0 -101.5 -30.5t-107.5 -92.5l-98 43z" />
<glyph unicode="6" horiz-adv-x="1139" d="M340 365q0 -155 39 -225t125 -70q109 0 169 137.5t60 390.5q0 148 -39.5 217.5t-124.5 69.5q-109 0 -169 -136t-60 -384zM428 934l16 -8q34 29 80.5 44t104.5 15q183 0 287 -115.5t104 -320.5q0 -250 -141.5 -414t-358.5 -164q-216 0 -331 142.5t-115 408.5 q0 201 62.5 402.5t174.5 361.5q80 114 189 173t239 59q159 0 253.5 -72t94.5 -191q0 -70 -39 -112.5t-104 -42.5q-66 0 -105.5 33t-39.5 88q0 39 27.5 88t27.5 61q0 27 -24 42t-68 15q-117 0 -201 -124t-133 -369z" />
<glyph unicode="7" horiz-adv-x="1139" d="M520 1284q-136 0 -188 -49t-74 -193h-96l80 451h872l-31 -182q-201 -226 -320 -477t-145 -503q-2 -26 -6 -110t-14 -127q-14 -56 -54.5 -87.5t-101.5 -31.5q-84 0 -128 42.5t-44 123.5q0 150 157 419t499 702v22h-406z" />
<glyph unicode="8" horiz-adv-x="1139" d="M481 715q-103 -66 -152.5 -154t-49.5 -207q0 -136 54.5 -213.5t149.5 -77.5q104 0 161.5 76t57.5 211q0 108 -52.5 195.5t-168.5 169.5zM643 893q96 55 145.5 131.5t49.5 169.5q0 108 -51.5 170.5t-139.5 62.5q-82 0 -137 -61.5t-55 -155.5q0 -87 47 -166.5t141 -150.5z M748 840l-7 -27q121 -95 179.5 -195t58.5 -210q0 -197 -129 -315t-344 -118q-204 0 -318 100t-114 277q0 131 72 227.5t235 182.5l4 12q-99 90 -145.5 176t-46.5 178q0 184 118 287t330 103q172 0 284.5 -91t112.5 -227q0 -121 -70 -208t-220 -152z" />
<glyph unicode="9" horiz-adv-x="1139" d="M791 1126q0 157 -39 227t-125 70q-109 0 -168.5 -137.5t-59.5 -390.5q0 -146 40.5 -216.5t123.5 -70.5q109 0 168.5 135t59.5 383zM705 557l-17 10q-35 -30 -81 -45.5t-103 -15.5q-183 0 -287 116.5t-104 321.5q0 250 141 413t356 163q216 0 332.5 -141.5t116.5 -403.5 q0 -204 -62 -408t-172 -358q-83 -115 -192 -174.5t-240 -59.5q-159 0 -253.5 71.5t-94.5 191.5q0 70 39.5 112.5t103.5 42.5q67 0 107.5 -33t40.5 -88q0 -38 -28.5 -88.5t-28.5 -62.5q0 -27 24 -42.5t68 -15.5q117 0 201 124t133 370z" />
<glyph unicode=":" horiz-adv-x="627" d="M172 909q0 61 44 104.5t106 43.5q61 0 104 -43t43 -105q0 -63 -42.5 -106t-104.5 -43q-63 0 -106.5 43t-43.5 106zM14 127q0 61 44 104t106 43q61 0 104 -43t43 -104q0 -63 -42.5 -106.5t-104.5 -43.5q-63 0 -106.5 43.5t-43.5 106.5z" />
<glyph unicode=";" horiz-adv-x="627" d="M172 909q0 61 44 104.5t106 43.5q61 0 104 -43t43 -105q0 -63 -42.5 -106t-104.5 -43q-63 0 -106.5 43t-43.5 106zM-57 -301q130 46 201 105.5t71 121.5q0 29 -11 38t-42 9h-17q-53 0 -87.5 37t-34.5 94q0 61 43 103.5t104 42.5q81 0 126.5 -55t45.5 -154 q0 -145 -95 -249.5t-280 -164.5z" />
<glyph unicode="&#x3c;" horiz-adv-x="1706" d="M1442 1214v-253l-854 -351l854 -348v-254l-1178 486v233z" />
<glyph unicode="=" horiz-adv-x="1706" d="M254 502h1198v-230h-1198v230zM254 950h1198v-231h-1198v231z" />
<glyph unicode="&#x3e;" horiz-adv-x="1706" d="M264 1214l1178 -487v-233l-1178 -486v254l854 348l-854 351v253z" />
<glyph unicode="?" d="M207 127q0 61 43 104t104 43q62 0 106 -43t44 -104q0 -63 -43.5 -106.5t-106.5 -43.5q-62 0 -104.5 43.5t-42.5 106.5zM446 504l-79 6q3 79 12 136.5t24 101.5q26 76 109 173l25 30l17 20q93 108 93 223q0 106 -52.5 173t-133.5 67q-44 0 -73.5 -16.5t-29.5 -39.5 q0 -10 38 -51.5t38 -77.5q0 -59 -35.5 -94t-95.5 -35q-72 0 -110.5 39.5t-38.5 112.5q0 117 103.5 183.5t289.5 66.5q191 0 302.5 -86.5t111.5 -233.5q0 -61 -17.5 -114t-52.5 -97q-47 -61 -158 -121l-43 -24q-142 -84 -188.5 -155.5t-55.5 -186.5z" />
<glyph unicode="@" horiz-adv-x="2019" d="M1171 313q-60 -95 -130 -143.5t-148 -48.5q-156 0 -241 90t-85 256q0 116 50.5 223.5t146.5 196.5q68 62 150 95.5t167 33.5q96 0 150 -44t67 -132l48 157h208l-174 -624q-8 -34 -11 -53t-3 -35q0 -45 19 -72t51 -27q30 0 84.5 27.5t101.5 69.5q97 87 148 211.5t51 273.5 q0 121 -34 219.5t-101 171.5q-99 109 -235.5 166t-299.5 57q-139 0 -265 -39.5t-233 -117.5q-166 -120 -255 -303t-89 -404q0 -336 205 -531.5t557 -195.5q163 0 315 49.5t316 157.5l41 -57q-151 -113 -321 -170.5t-351 -57.5q-432 0 -687 224.5t-255 601.5q0 202 87.5 381 t252.5 313q137 112 302.5 169.5t350.5 57.5q349 0 559.5 -189.5t210.5 -504.5q0 -164 -59 -302t-172 -239q-59 -52 -128 -80t-140 -28q-98 0 -156.5 52.5t-65.5 143.5zM1128 942q-60 0 -110 -44t-98 -140q-57 -112 -88 -218.5t-31 -187.5q0 -71 32.5 -113t86.5 -42 q59 0 115 60.5t108 180.5q42 99 67 198.5t25 166.5t-27.5 103t-79.5 36z" />
<glyph unicode="A" horiz-adv-x="1440" d="M690 1165l-295 -577h420l-104 586zM756 1489h207l260 -1167q34 -157 73.5 -192.5t130.5 -35.5h17l-17 -94h-725l19 94q95 5 126.5 29.5t31.5 89.5q0 14 -2 29.5t-5 30.5l-41 221h-487l-70 -146q-21 -45 -34 -87t-13 -64q0 -53 36.5 -76t129.5 -27l-16 -94h-527l17 94 q85 9 138.5 48.5t117.5 158.5z" />
<glyph unicode="B" horiz-adv-x="1546" d="M928 1489q265 0 408 -89t143 -253q0 -152 -108.5 -242t-323.5 -117v-14q174 -50 269 -149t95 -230q0 -184 -157.5 -289.5t-436.5 -105.5h-860l18 94h21q97 0 142 46t67 177l149 852q5 25 7.5 48t3.5 43q0 72 -39 101t-144 34l17 94h729zM639 735l-74 -418q-2 -11 -5 -31 q-9 -56 -9 -69q0 -63 40.5 -91t133.5 -28q152 0 227.5 86.5t75.5 261.5q0 154 -71 223.5t-228 69.5q-22 0 -77 -3q-9 -1 -13 -1zM655 831h50q104 0 157.5 7.5t87.5 23.5q72 34 114 111t42 174q0 125 -57 185.5t-175 60.5q-120 0 -158 -213l-1 -8z" />
<glyph unicode="C" horiz-adv-x="1470" d="M1327 385q-101 -209 -252 -312.5t-352 -103.5q-286 0 -462.5 190.5t-176.5 497.5q0 168 57.5 320.5t167.5 275.5q118 134 260.5 202.5t300.5 68.5q55 0 107.5 -8t104.5 -23q35 -11 96 -42.5t86 -31.5q32 0 58.5 26t41.5 73h96l-82 -566h-96q0 224 -92 348.5t-256 124.5 q-84 0 -151.5 -38t-127.5 -119q-89 -121 -137.5 -292t-48.5 -366q0 -252 83.5 -393t231.5 -141q126 0 241.5 86.5t227.5 265.5z" />
<glyph unicode="D" horiz-adv-x="1640" d="M715 1171l-150 -852q-5 -35 -7.5 -56.5t-2.5 -35.5q0 -70 39 -99.5t133 -29.5q79 0 146 33t128 102q46 53 85 134.5t67 185.5q32 122 49 230t17 196q0 198 -79 308t-220 110q-92 0 -137 -48t-68 -178zM834 1489q366 0 559.5 -159.5t193.5 -461.5q0 -183 -62.5 -341 t-181.5 -277q-125 -124 -296 -187t-381 -63h-709l18 94h21q97 0 142 46t67 177l149 852q5 25 7.5 48t3.5 43q0 72 -39 101t-146 34l17 94h637z" />
<glyph unicode="E" horiz-adv-x="1595" d="M1526 1489l-53 -490l-99 7q-2 218 -69.5 303.5t-237.5 85.5h-106q-128 0 -175 -42.5t-71 -181.5l-60 -335h54q114 0 175.5 54t104.5 195h92q-31 -133 -59.5 -280t-65.5 -373l-96 4q6 35 9 67t3 58q0 94 -39.5 136t-127.5 42h-66l-74 -420q-1 -8 -3 -22q-11 -66 -11 -80 q0 -68 46 -95.5t169 -27.5h94q162 0 275 94.5t196 300.5l107 -4l-109 -485h-1374l18 94h21q97 0 142 45t69 178l149 852q5 25 7.5 48t3.5 43q0 71 -37.5 99.5t-143.5 35.5l17 94h1325z" />
<glyph unicode="F" horiz-adv-x="1399" d="M1501 1489l-51 -490l-100 7q-2 217 -70 303t-238 86h-81q-128 0 -175 -42.5t-71 -181.5l-60 -335h54q114 0 175.5 54t104.5 195h92q-31 -133 -59.5 -280t-65.5 -373l-96 4q6 35 9 67t3 58q0 94 -39.5 136t-127.5 42h-66l-74 -420q-7 -38 -10.5 -64t-3.5 -38 q0 -65 43 -91.5t166 -31.5l-19 -94h-786l18 94h21q97 0 142 45t69 178l149 852q5 25 7.5 48t3.5 43q0 71 -37.5 99.5t-143.5 35.5l17 94h1300z" />
<glyph unicode="G" horiz-adv-x="1550" d="M1249 -31h-120q0 6 0.5 13t0.5 18q0 41 -12 63.5t-35 22.5q-21 0 -83 -33l-19 -10q-72 -39 -139.5 -56.5t-141.5 -17.5q-129 0 -244 52t-198 147q-88 100 -132 222.5t-44 264.5q0 167 58 320.5t169 277.5q118 134 260.5 202.5t300.5 68.5q55 0 107.5 -8t104.5 -23 q35 -11 96 -42.5t86 -31.5q32 0 58.5 26t41.5 73h96l-71 -521h-107q-10 203 -102 315.5t-246 112.5q-84 0 -151.5 -38t-127.5 -119q-89 -122 -137.5 -291.5t-48.5 -362.5q0 -254 77.5 -395t217.5 -141q113 0 179.5 93t66.5 253q0 86 -41.5 123.5t-140.5 42.5l16 96h669 l-16 -96q-79 0 -115 -38t-61 -183z" />
<glyph unicode="H" horiz-adv-x="1757" d="M-45 0l18 94h21q97 0 142 45t69 178l149 852q5 25 7.5 48t3.5 43q0 71 -37.5 99.5t-143.5 35.5l17 94h739l-16 -94q-97 0 -142.5 -47t-66.5 -177l-60 -342h486l59 340q5 26 7.5 49.5t2.5 41.5q0 67 -33.5 96t-129.5 39l16 94h747l-18 -94h-20q-99 0 -144.5 -46 t-68.5 -178l-150 -851q-5 -35 -7.5 -56t-2.5 -35q0 -70 40 -100t144 -35l-16 -94h-744l17 94q95 0 140 46t69 177l73 420h-483l-74 -418q-7 -37 -10.5 -62.5t-3.5 -39.5q0 -59 33.5 -85t132.5 -38l-17 -94h-745z" />
<glyph unicode="I" horiz-adv-x="915" d="M969 1489l-19 -94h-20q-98 0 -144 -46t-69 -178l-150 -852q-5 -34 -7.5 -55.5t-2.5 -34.5q0 -70 40 -100t144 -35l-16 -94h-770l18 94h21q97 0 142 45t69 178l149 852q5 25 7.5 48t3.5 43q0 71 -37.5 99.5t-143.5 35.5l17 94h768z" />
<glyph unicode="J" horiz-adv-x="1110" d="M573 1171q5 22 7 42.5t2 39.5q0 80 -41.5 110t-157.5 32l16 94h760l-16 -94h-6q-92 0 -134 -43t-67 -178l-115 -646q-29 -161 -61.5 -255.5t-75.5 -147.5q-67 -82 -157 -119t-224 -37q-174 0 -275.5 71.5t-101.5 192.5q0 92 51.5 150.5t131.5 58.5q69 0 113 -42t44 -109 q0 -39 -16 -68t-53 -57l-19 -13q-31 -20 -31 -40t26 -35t65 -15q77 0 118.5 62.5t73.5 239.5z" />
<glyph unicode="K" horiz-adv-x="1655" d="M633 731l10 -8l541 455q53 44 74.5 73t21.5 54q0 44 -41 64.5t-139 25.5l16 94h656l-17 -94q-80 0 -145.5 -26t-157.5 -105l-451 -383l355 -572q70 -114 136.5 -161.5t157.5 -53.5l-16 -94h-809l19 94q121 12 149.5 27.5t28.5 50.5q0 14 -4.5 29t-13.5 30l-273 435 l-127 -103l-45 -244q-6 -34 -8 -53.5t-2 -34.5q0 -73 39 -102.5t143 -34.5l-16 -94h-760l18 94h21q97 0 142 45t69 178l149 852q5 25 7.5 48t3.5 43q0 71 -37.5 99.5t-143.5 35.5l17 94h747l-16 -94h-14q-96 0 -141 -46.5t-68 -177.5z" />
<glyph unicode="L" horiz-adv-x="1436" d="M971 1489l-17 -94h-26q-98 0 -144 -46t-69 -178l-150 -852q-6 -35 -10 -63t-4 -39q0 -68 46 -95.5t169 -27.5h61q174 0 292.5 109t199.5 342h96l-119 -545h-1341l18 94h21q97 0 142 45t69 178l149 852q5 25 7.5 48t3.5 43q0 71 -37.5 99.5t-143.5 35.5l17 94h770z" />
<glyph unicode="M" horiz-adv-x="1933" d="M315 319q-6 -36 -9 -62t-3 -40q0 -60 32 -85.5t128 -37.5l-17 -94h-475l17 94h20q95 0 139 46.5t66 176.5l145 852q4 27 6.5 50.5t2.5 40.5q0 71 -36 99.5t-138 35.5l6 94h577l125 -1012h21l487 1012h569l-16 -94h-20q-96 0 -139.5 -45.5t-65.5 -178.5l-148 -852 q-4 -25 -6 -47.5t-2 -40.5q0 -72 38.5 -102t139.5 -35l-16 -94h-692l16 94q93 0 136 45t67 178l168 945h-27l-614 -1262h-146l-157 1262h-19z" />
<glyph unicode="N" horiz-adv-x="1667" d="M621 1489l600 -1112h20l143 792q6 38 8.5 57t2.5 31q0 74 -42 104t-153 34l17 94h518l-17 -94h-20q-100 0 -145.5 -46.5t-67.5 -177.5l-205 -1171h-225l-590 1112h-23l-143 -793q-6 -37 -8 -56t-2 -32q0 -72 39.5 -102t144.5 -35l-16 -94h-508l18 94h21q97 0 142 45 t69 178l149 852q5 25 7.5 48t2.5 43q0 71 -37 99.5t-143 35.5l17 94h426z" />
<glyph unicode="O" horiz-adv-x="1554" d="M446 412q0 -184 57 -269.5t179 -85.5q79 0 146 47t114 136q78 145 124 368.5t46 466.5q0 185 -56.5 271t-176.5 86q-79 0 -146 -46.5t-115 -134.5q-77 -143 -124.5 -371t-47.5 -468zM690 -31q-297 0 -452.5 167t-155.5 487q0 217 77 406.5t216 313.5q99 89 225.5 134 t273.5 45q294 0 450.5 -168t156.5 -484q0 -217 -77.5 -408t-215.5 -315q-98 -86 -225.5 -132t-272.5 -46z" />
<glyph unicode="P" horiz-adv-x="1470" d="M915 1489q278 0 425 -98.5t147 -282.5q0 -203 -171.5 -321.5t-469.5 -118.5q-55 0 -107.5 3.5t-105.5 10.5l-66 -363q-5 -32 -7.5 -53t-2.5 -35q0 -77 46.5 -107t172.5 -30l-16 -94h-805l18 94h21q97 0 142 45t69 178l149 852q5 25 7.5 48t3.5 43q0 71 -37.5 99.5 t-143.5 35.5l17 94h714zM648 776q46 -5 86.5 -7.5t78.5 -2.5q159 0 228 96t69 316q0 102 -51.5 159.5t-143.5 57.5q-88 0 -132.5 -46.5t-63.5 -158.5z" />
<glyph unicode="Q" horiz-adv-x="1554" d="M700 -33h-4q-293 0 -453.5 172.5t-160.5 487.5q0 212 78.5 403t214.5 313q99 89 225.5 134t273.5 45q295 0 451 -169t156 -487q0 -304 -149 -535.5t-394 -312.5q6 -134 38.5 -188.5t102.5 -54.5q42 0 93.5 32t140.5 117l63 -76q-102 -116 -219 -177.5t-233 -61.5 q-117 0 -175.5 55t-58.5 166q0 26 2.5 60.5t7.5 76.5zM722 63q21 62 31.5 117.5t10.5 100.5q0 49 -26 79.5t-68 30.5q-61 0 -96 -44.5t-35 -121.5q0 -81 38.5 -122.5t114.5 -41.5q12 0 18.5 0.5t11.5 1.5zM477 217v21q0 113 59.5 179t159.5 66q107 0 162 -78.5t55 -230.5v-8 q103 173 159 410.5t56 498.5q0 185 -58.5 271t-184.5 86q-83 0 -153.5 -46.5t-119.5 -134.5q-79 -141 -124.5 -341.5t-45.5 -413.5q0 -77 9 -147t26 -132z" />
<glyph unicode="R" horiz-adv-x="1659" d="M567 319q-5 -32 -7.5 -53.5t-2.5 -36.5q0 -70 40 -100t144 -35l-16 -94h-770l18 94h21q97 0 142 45t69 178l149 852q5 25 7.5 48t3.5 43q0 71 -37.5 99.5t-143.5 35.5l17 94h671q353 0 492 -75.5t139 -256.5q0 -155 -126.5 -249.5t-377.5 -125.5v-24 q156 -55 226.5 -145.5t77.5 -244.5q1 -34 2 -95q4 -187 73 -187q46 0 78.5 52.5t44.5 144.5h86q-20 -166 -97.5 -239t-234.5 -73q-75 0 -130.5 17t-94.5 51q-89 76 -97 344q0 35 -1 55q-7 194 -59.5 254t-196.5 60h-35zM660 848q37 -3 66.5 -4.5t53.5 -1.5q175 0 257.5 76 t82.5 237q0 119 -57 181.5t-166 62.5q-137 0 -175 -202l-1 -7z" />
<glyph unicode="S" horiz-adv-x="1298" d="M1141 1520h80q-18 -102 -33.5 -227.5t-30.5 -280.5h-92q-19 188 -113.5 301.5t-228.5 113.5q-102 0 -159.5 -57t-57.5 -158q0 -135 232 -293l14 -10q250 -173 320.5 -275.5t70.5 -236.5q0 -193 -139 -310.5t-371 -117.5q-135 0 -283 50.5t-157 50.5q-26 0 -49 -23 t-42 -65h-86q27 133 46 271.5t30 283.5l88 -1q5 -218 109 -342t280 -124q110 0 177 67t67 178q0 155 -293 348l-10 7q-215 141 -271.5 226t-56.5 204q0 200 131.5 311t370.5 111q119 0 239.5 -43t127.5 -43q28 0 51.5 21.5t38.5 62.5z" />
<glyph unicode="T" horiz-adv-x="1450" d="M197 0l16 94q6 0 18.5 -1t18.5 -1q102 0 147.5 45.5t69.5 179.5l192 1078h-6q-191 0 -301 -90t-184 -310h-96l106 494h1335l-65 -514h-92v35q0 219 -72.5 301t-261.5 83l-191 -1075q-5 -35 -7.5 -56t-2.5 -34q0 -75 44 -104t163 -31l-16 -94h-815z" />
<glyph unicode="U" horiz-adv-x="1714" d="M338 1169q5 26 7.5 48.5t2.5 42.5q0 71 -37 99.5t-143 35.5l16 94h768l-18 -94h-21q-98 0 -143.5 -46t-69.5 -178l-112 -634q-9 -51 -13 -93t-4 -79q0 -139 77 -216t214 -77q190 0 305.5 132.5t163.5 407.5l99 557l8 57q2 19 2 31q0 75 -43.5 105.5t-155.5 32.5l16 94 h527l-17 -94h-20q-99 0 -144 -46t-67 -178l-109 -614q-54 -309 -213.5 -448.5t-457.5 -139.5q-254 0 -397.5 118t-143.5 327q0 23 2.5 51t7.5 61z" />
<glyph unicode="V" horiz-adv-x="1421" d="M1094 995l71 146q21 42 33 83.5t12 65.5q0 56 -40 79.5t-144 25.5l16 94h545l-16 -94q-87 -8 -143 -51.5t-113 -155.5l-613 -1200h-210l-259 1179q-36 160 -76 194t-134 34h-9l17 94h735l-17 -94q-113 -4 -146.5 -27.5t-33.5 -91.5q0 -14 2 -29.5t4 -29.5l166 -869h21z " />
<glyph unicode="W" horiz-adv-x="2087" d="M1067 895h-20l-322 -907h-248l-258 1179q-34 157 -73 192.5t-132 35.5l17 94h669l-20 -94q-74 -10 -99.5 -34.5t-25.5 -84.5q0 -14 1.5 -29t4.5 -30l166 -869h21l270 748l-27 118q-25 107 -56.5 140t-100.5 41l16 94h649l-16 -94q-90 -7 -119 -31t-29 -88q0 -14 1.5 -29 t4.5 -30l166 -869h23l287 793q20 57 30.5 94.5t10.5 56.5q0 55 -40.5 78t-142.5 25l17 94h544l-16 -94q-89 -8 -154.5 -61.5t-101.5 -145.5l-461 -1200h-246z" />
<glyph unicode="X" horiz-adv-x="1407" d="M1122 264q45 -92 98 -130t135 -40l-18 -94h-694l17 94q71 2 101 20t30 58q-1 13 -4.5 27.5t-10.5 30.5l-176 372l-326 -360q-12 -14 -19 -33t-7 -39q0 -37 32.5 -54.5t108.5 -21.5l-16 -94h-535l17 94q74 6 143 44.5t137 111.5l416 446l-252 527q-42 87 -92.5 126.5 t-126.5 45.5l18 94h680l-16 -94q-72 -2 -102.5 -20t-30.5 -58q0 -13 3.5 -27.5t10.5 -30.5l145 -311l228 248q32 35 49.5 67t17.5 54q0 38 -34.5 57t-104.5 21l17 94h536l-18 -94q-76 -8 -143 -45.5t-136 -110.5l-362 -387z" />
<glyph unicode="Y" horiz-adv-x="1346" d="M229 1178l-6 11q-112 206 -239 206h-4l16 94h741l-16 -94q-108 -4 -144 -27t-36 -82q0 -26 10.5 -60.5t30.5 -70.5l225 -407l256 393q20 32 32.5 71.5t12.5 71.5q0 61 -39 85t-143 26l16 94h553l-16 -94q-78 -6 -133 -44.5t-134 -162.5l-340 -529l-59 -340 q-5 -34 -7.5 -55t-2.5 -35q0 -76 45.5 -105.5t167.5 -29.5l-17 -94h-821l17 94q6 0 18 -1t18 -1q102 0 149 47t71 178l59 345z" />
<glyph unicode="Z" horiz-adv-x="1407" d="M-37 0l6 47l1000 1317v29h-252q-99 0 -163 -26.5t-122 -90.5q-22 -23 -54 -82t-97 -197h-107l119 492h1091l-8 -72l-973 -1302v-19h332q160 0 252.5 85.5t183.5 328.5h107l-119 -510h-1196z" />
<glyph unicode="[" horiz-adv-x="758" d="M369 1489h501l-14 -76h-281l-282 -1603h282l-14 -76h-502z" />
<glyph unicode="\" horiz-adv-x="573" d="M504 -190h-127l-268 1710h127z" />
<glyph unicode="]" horiz-adv-x="758" d="M346 -266h-502l13 76h282l283 1603h-283l13 76h501z" />
<glyph unicode="^" horiz-adv-x="2048" d="M893 1462h260l479 -565h-121l-489 348l-490 -348h-120z" />
<glyph unicode="_" d="M0 -244h1024v-239h-1024v239z" />
<glyph unicode="`" d="M758 1202h-105l-260 191q-36 27 -49.5 45.5t-13.5 38.5q0 37 24 62.5t60 25.5q26 0 49 -14.5t49 -47.5z" />
<glyph unicode="a" horiz-adv-x="1270" d="M731 778q0 115 -36 174.5t-105 59.5q-52 0 -98 -39t-82 -113q-56 -113 -89.5 -267.5t-33.5 -303.5q0 -111 37 -170.5t106 -59.5q61 0 111 49.5t90 149.5q47 117 73.5 255.5t26.5 264.5zM897 262q-9 -41 -12.5 -65.5t-3.5 -42.5q0 -26 8 -41t22 -15q41 0 91 65.5 t124 215.5l74 -33q-86 -188 -167 -273t-173 -85q-71 0 -111 45t-45 129h-16q-61 -96 -137.5 -143.5t-169.5 -47.5q-168 0 -262 105.5t-94 294.5q0 151 47.5 288t138.5 246q78 93 172.5 142t198.5 49q92 0 152.5 -47t86.5 -138h19l37 152h192z" />
<glyph unicode="b" horiz-adv-x="1110" d="M729 770q0 104 -36 158.5t-105 54.5q-52 0 -97.5 -35t-84.5 -104q-66 -117 -106 -277.5t-40 -310.5q0 -91 39.5 -145t106.5 -54q61 0 112 46.5t94 140.5q54 118 85.5 261.5t31.5 264.5zM172 1204q6 35 9 68t3 65q0 57 -32.5 77t-155.5 22l18 88q145 0 258 7t205 21 l-104 -589l8 -5q47 64 112 96.5t144 32.5q157 0 257.5 -116.5t100.5 -300.5q0 -139 -51 -273t-143 -237q-86 -96 -180 -143.5t-197 -47.5q-188 0 -288.5 96t-100.5 275q0 43 4.5 91t13.5 103z" />
<glyph unicode="c" horiz-adv-x="985" d="M768 322l68 -50q-77 -152 -182 -227.5t-240 -75.5q-191 0 -297.5 111.5t-106.5 310.5q0 149 55 291t152 244q76 80 174 123t207 43q144 0 227.5 -66.5t83.5 -179.5q0 -74 -44 -119t-117 -45q-64 0 -104 34.5t-40 88.5q0 49 43 97.5t43 62.5q0 18 -16 29.5t-43 11.5 q-62 0 -116.5 -39t-96.5 -113q-63 -109 -96 -237t-33 -263q0 -147 42 -220t128 -73q74 0 150.5 64.5t158.5 196.5z" />
<glyph unicode="d" horiz-adv-x="1305" d="M725 768q0 118 -35.5 179t-105.5 61q-53 0 -100 -39t-81 -111q-54 -114 -86 -266.5t-32 -300.5q0 -111 38 -171.5t109 -60.5q46 0 88 32t74 91q58 111 94.5 272t36.5 314zM913 248q-6 -30 -9 -54.5t-3 -41.5q0 -32 8.5 -49t24.5 -17q40 0 90 64.5t125 214.5l76 -33 q-89 -193 -171 -276t-182 -83q-79 0 -119.5 45t-47.5 142l-17 2q-61 -96 -137.5 -143.5t-169.5 -47.5q-168 0 -262 105.5t-94 294.5q0 151 47.5 288t138.5 246q78 93 171 142t193 49q77 0 132.5 -36t72.5 -97h17l39 241q6 39 9 73.5t3 59.5q0 57 -32.5 77t-164.5 22l-8 88 h57q138 0 245.5 7t195.5 21z" />
<glyph unicode="e" horiz-adv-x="1006" d="M301 498q195 55 300.5 158.5t105.5 238.5q0 54 -32.5 88.5t-82.5 34.5q-103 0 -175.5 -130t-115.5 -390zM301 423q-1 -13 -1.5 -28.5t-0.5 -44.5q0 -152 41 -218t133 -66q72 0 146.5 52.5t162.5 166.5l62 -43q-98 -142 -202 -206.5t-234 -64.5q-184 0 -289 114t-105 314 q0 155 61.5 290.5t178.5 240.5q88 77 188 118.5t201 41.5q127 0 203 -57.5t76 -151.5q0 -151 -164.5 -272.5t-456.5 -185.5z" />
<glyph unicode="f" horiz-adv-x="750" d="M555 1161l-27 -155h226l-17 -91h-225l-123 -710q-56 -328 -164 -466t-303 -138q-101 0 -157 40.5t-56 112.5q0 56 35.5 90.5t91.5 34.5q51 0 79 -27t28 -77q0 -19 -8.5 -41.5t-8.5 -26.5q0 -7 11 -12.5t26 -5.5q53 0 89.5 82.5t72.5 291.5l145 852h-223l16 91h220 q37 288 138.5 418t287.5 130q115 0 180 -49.5t65 -136.5q0 -63 -33.5 -98t-95.5 -35q-51 0 -80.5 27.5t-29.5 74.5q0 27 12 63t12 44q0 11 -11.5 18.5t-31.5 7.5q-49 0 -79 -61.5t-62 -247.5z" />
<glyph unicode="g" horiz-adv-x="1165" d="M907 247q-2 -12 -8 -39q-60 -303 -166 -435q-71 -89 -180 -135t-248 -46q-140 0 -217.5 50t-77.5 141q0 64 40.5 104.5t105.5 40.5q55 0 87.5 -32t32.5 -86q0 -22 -9 -52.5t-9 -40.5q0 -13 27 -23.5t65 -10.5q123 0 204.5 122t135.5 390h-16q-47 -95 -124.5 -145 t-176.5 -50q-163 0 -256.5 103.5t-93.5 283.5q0 139 49 274.5t139 243.5q77 94 171.5 142.5t199.5 48.5q92 0 152 -46.5t87 -138.5h19l37 152h192zM731 780q0 117 -35 174.5t-106 57.5q-52 0 -98 -37.5t-82 -108.5q-56 -107 -89.5 -255.5t-33.5 -293.5q0 -105 37 -162 t106 -57q47 0 90.5 31t75.5 86q59 105 97 262.5t38 302.5z" />
<glyph unicode="h" horiz-adv-x="1237" d="M229 1204q7 34 11 68t4 65q0 58 -35 78.5t-154 20.5l17 88q144 0 258.5 7t206.5 21l-152 -770l12 -4q77 157 168 235.5t197 78.5q111 0 173 -66t62 -184q0 -68 -22 -163.5t-82 -277.5l-27 -81q-45 -135 -45 -166q0 -24 11.5 -39t29.5 -15q39 0 92.5 70.5t120.5 208.5 l76 -33q-89 -192 -169 -274t-175 -82q-88 0 -140.5 56.5t-52.5 152.5q0 68 21.5 168t73.5 268l31 98q48 153 48 199q0 33 -17.5 52.5t-47.5 19.5q-113 0 -233.5 -213t-188.5 -549l-47 -242h-252z" />
<glyph unicode="i" horiz-adv-x="754" d="M635 332q-87 -196 -164.5 -278.5t-173.5 -82.5q-87 0 -141 55.5t-54 143.5q0 110 97 398q15 43 22 65l23 67q63 184 63 232q0 20 -10.5 34.5t-26.5 14.5q-44 0 -100.5 -79t-116.5 -224l-73 29q80 205 163 296t187 91q92 0 144 -56t52 -155q0 -90 -82 -323 q-14 -42 -22 -64q-8 -25 -24 -70q-79 -229 -79 -276q0 -27 12 -43.5t29 -16.5q37 0 84.5 65t114.5 210zM440 1554q57 0 97.5 -39.5t40.5 -95.5q0 -58 -40 -98.5t-98 -40.5t-96.5 39.5t-38.5 99.5q0 57 39 96t96 39z" />
<glyph unicode="j" horiz-adv-x="678" d="M281 696q18 83 27 138.5t9 78.5q0 33 -11.5 51.5t-31.5 18.5q-38 0 -89.5 -67t-121.5 -209l-75 32q90 196 169 276.5t177 80.5q100 0 153.5 -58t53.5 -166q0 -43 -8 -106.5t-31 -196.5q-40 -215 -82 -382.5t-84 -276.5q-56 -150 -158.5 -229.5t-238.5 -79.5 q-114 0 -178 50.5t-64 139.5q0 58 36 99.5t85 41.5q54 0 86.5 -28.5t32.5 -75.5q0 -22 -14.5 -56t-14.5 -46q0 -20 12 -29.5t37 -9.5q58 0 97.5 74.5t86.5 293.5zM451 1554q56 0 96.5 -39.5t40.5 -95.5q0 -58 -39.5 -98.5t-97.5 -40.5q-59 0 -98.5 40t-39.5 99q0 57 40 96 t98 39z" />
<glyph unicode="k" horiz-adv-x="1200" d="M238 0h-238l215 1204q6 34 9 66.5t3 66.5q0 58 -35 78.5t-153 20.5l18 88q151 0 263 7t192 21l-162 -905q74 0 126 30.5t75 88.5q88 212 153.5 268t172.5 56q92 0 144 -39.5t52 -108.5q0 -57 -32 -89t-89 -32q-42 0 -68 24t-26 62q0 14 5 34.5t5 27.5q0 13 -6.5 19.5 t-19.5 6.5q-21 0 -35.5 -22t-30.5 -80q-28 -99 -82 -158.5t-157 -107.5v-25q133 -15 197.5 -85t64.5 -200q0 -36 -6.5 -86.5t-6.5 -62.5q0 -28 10 -43.5t27 -15.5q47 0 102 71t117 211l78 -37q-72 -181 -160 -270.5t-194 -89.5q-109 0 -163 55.5t-54 167.5q0 25 4 86.5 t4 97.5q0 83 -37 122.5t-114 39.5q-18 0 -36.5 -1.5t-37.5 -4.5z" />
<glyph unicode="l" horiz-adv-x="696" d="M567 1552l-258 -1178q-2 -8 -5 -24q-28 -126 -28 -196q0 -37 12 -56.5t34 -19.5q41 0 89 60t128 220l75 -32q-87 -193 -171.5 -275t-192.5 -82q-93 0 -151 50.5t-58 130.5q0 51 7 106.5t22 118.5l180 829q10 47 15 82.5t5 50.5q0 54 -39 76.5t-137 22.5h-18l16 88 q138 0 255 7t220 21z" />
<glyph unicode="m" horiz-adv-x="1925" d="M113 0l123 602q23 114 37 206.5t14 125.5q0 24 -9.5 38.5t-25.5 14.5q-35 0 -78 -61.5t-131 -245.5l-74 35q94 214 165.5 295.5t156.5 81.5t129.5 -55.5t44.5 -162.5q0 -37 -5 -79t-16 -90l11 -13q88 198 191.5 299t217.5 101q86 0 130 -55.5t44 -162.5q0 -37 -5 -79 t-15 -90l10 -13q93 204 195 302t223 98q111 0 172 -65.5t61 -184.5q0 -68 -22 -163.5t-82 -277.5q-7 -20 -19 -58q-51 -155 -51 -189q0 -24 11 -39t28 -15q39 0 92.5 70.5t120.5 208.5l76 -33q-89 -192 -169 -274t-175 -82q-88 0 -139.5 56t-51.5 153q0 71 21.5 173.5 t71.5 262.5q12 40 35 110q47 143 47 187q0 33 -18 52.5t-48 19.5q-113 0 -233.5 -213t-188.5 -549l-49 -242h-250l123 602q24 119 37.5 209.5t13.5 126.5q0 24 -14 41.5t-33 17.5q-99 0 -217.5 -214.5t-183.5 -540.5l-50 -242h-249z" />
<glyph unicode="n" horiz-adv-x="1352" d="M455 692q92 204 194.5 302t222.5 98q112 0 173 -65.5t61 -184.5q0 -68 -22 -163.5t-83 -277.5l-18 -58q-51 -155 -51 -189q0 -24 10.5 -39t28.5 -15q39 0 92.5 70.5t120.5 208.5l76 -33q-89 -192 -169 -274t-176 -82q-88 0 -140 56.5t-52 152.5q0 68 21.5 168t72.5 268 l31 98q49 153 49 199q0 33 -17 52.5t-46 19.5q-113 0 -234 -213t-188 -549l-50 -242h-249l123 602q23 114 37 206.5t14 125.5q0 24 -9.5 38.5t-25.5 14.5q-35 0 -78 -61.5t-131 -245.5l-74 35q94 214 165.5 295.5t156.5 81.5t129.5 -55.5t44.5 -162.5q0 -37 -5 -79t-16 -90z " />
<glyph unicode="o" horiz-adv-x="1073" d="M276 227q0 -85 36.5 -128.5t107.5 -43.5q50 0 90 34t68 99q25 58 46 139.5t42 200.5q14 82 21 160.5t7 151.5q0 85 -35 128.5t-104 43.5q-50 0 -90 -34t-70 -101q-23 -52 -41.5 -125.5t-40.5 -198.5q-19 -113 -28 -190.5t-9 -135.5zM434 -31q-199 0 -304 125.5 t-105 362.5q0 273 149.5 455t370.5 182q196 0 302.5 -119.5t106.5 -339.5q0 -293 -146 -479.5t-374 -186.5z" />
<glyph unicode="p" horiz-adv-x="1274" d="M240 602q20 116 33.5 212.5t13.5 119.5q0 24 -9.5 38.5t-25.5 14.5q-36 0 -81 -64t-130 -243l-72 35q99 222 169.5 300.5t160.5 78.5q76 0 117 -42t41 -118q0 -23 -2 -48t-6 -50l10 -5q50 127 134 191.5t198 64.5q161 0 261.5 -127t100.5 -335q0 -141 -45.5 -264.5 t-130.5 -215.5q-69 -75 -157.5 -115t-184.5 -40q-78 0 -134.5 25.5t-88.5 74.5l-17 -2l-43 -250q-3 -21 -4.5 -35t-1.5 -22q0 -49 36.5 -68.5t141.5 -22.5l-16 -89h-596l14 90q7 0 17 -1t14 -1q73 0 105 35t55 165zM885 735q0 123 -37 184.5t-111 61.5q-52 0 -99.5 -37.5 t-82.5 -107.5q-50 -102 -79.5 -238.5t-29.5 -273.5q0 -117 38.5 -177.5t113.5 -60.5q50 0 94 31t76 88q52 96 84.5 240.5t32.5 289.5z" />
<glyph unicode="q" horiz-adv-x="1186" d="M731 778q0 115 -36 174.5t-105 59.5q-52 0 -98 -39t-82 -113q-56 -113 -89.5 -267.5t-33.5 -303.5q0 -111 37 -170.5t106 -59.5q61 0 111 49.5t90 149.5q47 117 73.5 255.5t26.5 264.5zM842 -161q-3 -18 -4.5 -33t-1.5 -25q0 -51 40 -70.5t158 -19.5l-16 -90h-666l17 90 q9 -1 19.5 -1.5t29.5 -0.5q49 0 81.5 7.5t48.5 22.5q28 24 50 130q5 26 8 40l43 207h-14q-46 -60 -112 -91.5t-150 -31.5q-162 0 -255 106.5t-93 291.5q0 151 47.5 288t138.5 246q77 94 171 142.5t200 48.5q80 0 139.5 -36.5t93.5 -105.5h25l100 136h123z" />
<glyph unicode="r" d="M113 0l123 602q23 114 37 206.5t14 125.5q0 24 -9.5 38.5t-25.5 14.5q-35 0 -78 -61.5t-131 -245.5l-74 35q94 214 165.5 295.5t156.5 81.5t129.5 -56.5t44.5 -165.5q0 -31 -4.5 -66.5t-13.5 -73.5l14 -7q73 207 153.5 291t200.5 84q84 0 135 -46.5t51 -121.5 q0 -59 -36.5 -94t-98.5 -35q-53 0 -83.5 25t-30.5 67v22q0 23 -7 35.5t-20 12.5q-27 0 -52.5 -29t-64.5 -107q-61 -121 -113.5 -276t-82.5 -309l-50 -242h-249z" />
<glyph unicode="s" horiz-adv-x="977" d="M352 -25q-166 0 -264 66t-98 176q0 70 40 112t107 42q52 0 85.5 -32t33.5 -81q0 -37 -25.5 -78t-25.5 -57q0 -30 42.5 -49t112.5 -19q94 0 146.5 45t52.5 125q0 83 -162 218l-26 22q-161 132 -204.5 197.5t-43.5 138.5q0 132 110 212.5t295 80.5q142 0 238 -71t96 -171 q0 -57 -35 -90t-96 -33q-56 0 -87.5 27t-31.5 75q0 27 19.5 60.5t19.5 50.5q0 29 -34.5 48.5t-90.5 19.5q-74 0 -121 -44t-47 -112q0 -87 175 -235l5 -4l53 -46q202 -170 202 -293q0 -141 -116.5 -221t-324.5 -80z" />
<glyph unicode="t" horiz-adv-x="758" d="M201 973h-172l16 90q145 18 240.5 109.5t154.5 269.5h99l-84 -379h264l-17 -90h-262l-119 -677q-7 -36 -10.5 -72t-3.5 -68q0 -34 12 -54t31 -20q41 0 96.5 68t141.5 223l78 -37q-102 -203 -189 -286t-190 -83q-102 0 -159.5 60t-57.5 168q0 40 18 144q4 23 6 36z" />
<glyph unicode="u" horiz-adv-x="1352" d="M782 369q-92 -204 -194.5 -302t-222.5 -98q-111 0 -173.5 67.5t-62.5 186.5q0 108 90 362l27 77q31 91 49 167.5t18 106.5q0 21 -10 35t-24 14q-39 0 -92.5 -70.5t-120.5 -209.5l-74 34q89 194 168 275.5t174 81.5q88 0 138 -55.5t50 -151.5q0 -99 -83 -361l-11 -34 q-6 -20 -18 -56q-70 -221 -70 -291q0 -47 15 -68.5t48 -21.5q112 0 233 213t189 549l49 244h250l-123 -604q-23 -120 -37 -210t-14 -126q0 -21 10 -35t25 -14q35 0 77.5 60.5t131.5 248.5l74 -35q-95 -215 -166 -297t-156 -82t-129.5 55.5t-44.5 161.5q0 38 5 81t16 91z" />
<glyph unicode="v" horiz-adv-x="1194" d="M4 711q85 203 168 292t186 89q90 0 144.5 -54.5t54.5 -144.5q0 -99 -84 -319l-8 -21l-16 -42q-82 -210 -82 -325q0 -53 29.5 -84.5t80.5 -31.5q94 0 177 63t163 195q69 113 110.5 240t41.5 216q0 34 -10.5 54t-26.5 20q-5 0 -35 -9t-53 -9q-59 0 -94 32.5t-35 85.5 q0 64 39 101t106 37q97 0 154 -67t57 -181q0 -125 -40 -265.5t-113 -271.5q-93 -164 -211.5 -251t-251.5 -87q-146 0 -227 76t-81 213q0 66 23.5 157t71.5 210q14 36 41 100q61 145 61 193q0 26 -12.5 42.5t-32.5 16.5q-45 0 -103 -78t-118 -221z" />
<glyph unicode="w" horiz-adv-x="1763" d="M1042 541q-30 -129 -42.5 -209t-12.5 -139q0 -60 25.5 -88.5t79.5 -28.5q71 0 141.5 46t134.5 134q75 103 120.5 245t45.5 275q0 39 -11.5 60.5t-31.5 21.5q-10 0 -40 -8t-50 -8q-53 0 -88 33.5t-35 85.5q0 60 38.5 95.5t104.5 35.5q99 0 156 -75.5t57 -207.5 q0 -119 -35 -252t-98 -252q-87 -165 -203.5 -249.5t-257.5 -84.5q-123 0 -193.5 62.5t-70.5 171.5q0 9 1 21t3 30h-18q-64 -139 -161.5 -212t-217.5 -73q-122 0 -187 64t-65 184q0 76 22 168.5t89 272.5l1 4q76 211 76 270q0 22 -11 36.5t-27 14.5q-40 0 -94 -70t-121 -210 l-74 34q94 200 171.5 277.5t176.5 77.5q96 0 146.5 -50t50.5 -145q0 -100 -92 -371l-17 -49q-48 -145 -68 -224t-20 -124q0 -37 23 -58.5t63 -21.5q128 0 250.5 209t193.5 559l50 244h245z" />
<glyph unicode="x" horiz-adv-x="1180" d="M16 733q111 213 193.5 289t189.5 76q103 0 164.5 -70t61.5 -188v-17h10q46 140 117 207.5t170 67.5q81 0 127.5 -47t46.5 -129q0 -67 -34.5 -105.5t-94.5 -38.5q-55 0 -87 30t-32 81q0 33 18.5 62.5t18.5 31.5q0 12 -5.5 17.5t-17.5 5.5q-31 0 -65.5 -38.5t-65.5 -107.5 q-18 -42 -36 -106t-40 -170q-18 -92 -27.5 -170t-9.5 -142q0 -107 20 -155.5t62 -48.5q53 0 114.5 71.5t152.5 241.5l75 -43q-109 -211 -193 -289t-192 -78q-102 0 -162.5 71t-60.5 189v17h-12q-47 -140 -117.5 -207.5t-169.5 -67.5q-78 0 -128 45.5t-50 114.5q0 76 35 118 t98 42q53 0 86 -30t33 -77q0 -38 -18.5 -67.5t-18.5 -30.5q0 -11 6 -18t17 -7q25 0 50 23.5t54 73.5q22 37 40 86t40 139q30 118 44.5 218t14.5 185q0 116 -19 166t-63 50q-52 0 -113.5 -72t-152.5 -242z" />
<glyph unicode="y" horiz-adv-x="1214" d="M1120 1063l-162 -816l-9 -46q-62 -313 -154 -422q-77 -91 -188 -138t-251 -47q-141 0 -220 50t-79 139q0 61 39 101t99 40q53 0 86.5 -30.5t33.5 -77.5q0 -9 -4 -34.5t-4 -43.5q0 -23 26 -38t66 -15q145 0 223 132t117 453h-14q-83 -139 -171 -205.5t-189 -66.5 q-112 0 -174 65t-62 183q0 102 88 346l29 82q31 88 49 163t18 105q0 18 -10 31.5t-24 13.5q-39 0 -92.5 -69t-123.5 -207l-69 32q77 184 159.5 268.5t182.5 84.5q88 0 137 -54.5t49 -152.5q0 -89 -79 -331l-15 -46q-6 -17 -16 -51q-72 -222 -72 -291q0 -45 15 -65.5 t48 -20.5q45 0 104 42t109 112q68 92 114.5 218.5t94.5 370.5l47 236h248z" />
<glyph unicode="z" horiz-adv-x="934" d="M162 260v-20q34 11 57.5 15.5t40.5 4.5q63 0 156 -41t133 -41q55 0 101.5 30.5t86.5 92.5l62 -35q-56 -149 -139 -224t-193 -75q-57 0 -101 20.5t-79 63.5l-36 46q-64 81 -85 81q-14 0 -23.5 -11.5t-9.5 -29.5q0 -9 9.5 -34.5t9.5 -41.5q0 -41 -23.5 -65.5t-62.5 -24.5 q-41 0 -61.5 26.5t-20.5 78.5q0 107 121.5 254.5t533.5 503.5v13q-25 -4 -45 -6.5t-35 -2.5q-71 0 -161 34.5t-115 34.5q-40 0 -80 -32t-82 -97l-62 41q69 152 139 216.5t164 64.5q54 0 95.5 -18.5t81.5 -59.5q18 -19 44 -57q41 -60 72 -60q16 0 23.5 8t7.5 25q0 1 -8 27.5 t-8 52.5q0 36 20.5 59t52.5 23q35 0 59.5 -26t24.5 -62q0 -66 -47.5 -143t-158.5 -189q-95 -95 -254 -230t-205 -190z" />
<glyph unicode="{" d="M852 1516v-66q-111 -3 -152 -54t-41 -208v-131q0 -227 -50.5 -308.5t-184.5 -113.5q134 -33 184.5 -113.5t50.5 -306.5v-131q0 -158 41 -209.5t152 -55.5v-63h-12q-229 0 -314.5 74t-85.5 272v187q0 168 -54.5 230t-207.5 77v80q153 14 207.5 76.5t54.5 230.5v186 q0 199 85.5 273t314.5 74h12z" />
<glyph unicode="|" d="M393 1565h240v-2048h-240v2048z" />
<glyph unicode="}" d="M172 1516h12q229 0 314.5 -74t85.5 -273v-186q0 -168 54.5 -230.5t207.5 -76.5v-80q-153 -15 -207.5 -77t-54.5 -230v-187q0 -198 -85.5 -272t-314.5 -74h-12v63q111 4 152 55.5t41 209.5v131q0 226 50.5 306.5t184.5 113.5q-134 34 -184.5 115t-50.5 307v131 q0 157 -41 208t-152 54v66z" />
<glyph unicode="~" horiz-adv-x="1706" d="M1530 819v-254q-101 -69 -194 -103t-183 -34q-45 0 -89 7.5t-83 21.5q-13 4 -38 13q-255 89 -382 89q-84 0 -175.5 -37.5t-207.5 -120.5v254q112 73 207.5 108.5t179.5 35.5q63 0 126.5 -12t169.5 -46q16 -5 51 -17q159 -56 247 -56q84 0 173.5 36t197.5 115z" />
<glyph horiz-adv-x="1139" d="M-10 664h137q2 56 7.5 106t15.5 96h-142l41 97h125q75 256 225.5 405.5t343.5 149.5q44 0 85 -8t81 -23q28 -11 76 -38.5t68 -27.5q27 0 47.5 23.5t29.5 66.5h76l-55 -485h-92q0 192 -69 292.5t-195 100.5q-110 0 -191 -118t-125 -338h467l-41 -97h-444q-6 -45 -11 -94.5 t-10 -107.5h416l-41 -97h-374q4 -233 65 -359t170 -126q90 0 177 83.5t169 248.5l86 -23q-77 -206 -198 -311t-281 -105q-226 0 -354 153t-144 439h-182z" />
<glyph unicode="&#x20ac;" horiz-adv-x="1139" d="M-10 664h137q2 56 7.5 106t15.5 96h-142l41 97h125q75 256 225.5 405.5t343.5 149.5q44 0 85 -8t81 -23q28 -11 76 -38.5t68 -27.5q27 0 47.5 23.5t29.5 66.5h76l-55 -485h-92q0 192 -69 292.5t-195 100.5q-110 0 -191 -118t-125 -338h467l-41 -97h-444q-6 -45 -11 -94.5 t-10 -107.5h416l-41 -97h-374q4 -233 65 -359t170 -126q90 0 177 83.5t169 248.5l86 -23q-77 -206 -198 -311t-281 -105q-226 0 -354 153t-144 439h-182z" />
<glyph unicode="&#xa1;" horiz-adv-x="692" d="M328 1372q0 62 44 106t105 44q62 0 106 -44t44 -106q0 -63 -43.5 -106t-106.5 -43t-106 43t-43 106zM367 1004l77 -15q-23 -141 -34 -258t-11 -223q0 -131 10 -277q3 -38 3 -47q0 -107 -40.5 -157t-127.5 -50q-79 0 -121.5 37.5t-42.5 106.5q0 57 68 212q41 95 63 152 q34 88 70.5 210.5t85.5 308.5z" />
<glyph unicode="&#xa2;" horiz-adv-x="1139" d="M414 125l284 644q-3 10 -4.5 20.5t-1.5 19.5q0 17 5 33t16 35q6 13 36.5 40.5t30.5 47.5q0 18 -17 29.5t-44 11.5q-63 0 -118 -39t-99 -113q-66 -111 -100.5 -241.5t-34.5 -266.5q0 -69 11 -122t36 -99zM858 322l68 -50q-77 -149 -180.5 -225t-231.5 -76q-27 0 -40 1 t-26 3l-129 -286h-98l133 303q-125 38 -190.5 141t-65.5 260q0 147 55.5 288.5t153.5 244.5q78 80 177.5 124t205.5 44q31 0 65.5 -6.5t80.5 -20.5l108 254h100l-131 -293q42 -36 63 -81.5t21 -100.5q0 -77 -44 -120.5t-122 -43.5q-18 0 -34 3.5t-31 10.5l-274 -626 q8 -3 18 -3.5t31 -0.5q82 0 156.5 60t160.5 196z" />
<glyph unicode="&#xa3;" horiz-adv-x="1139" d="M586 836h321l-14 -101h-313q-4 -152 -58.5 -266.5t-167.5 -206.5l4 -12q47 11 77 15.5t48 4.5q63 0 173 -43t155 -43q36 0 60.5 13t49.5 46q9 12 22 35q27 48 52 48q19 0 30 -16.5t11 -45.5q0 -122 -83 -205.5t-208 -83.5q-138 0 -329 108q-18 10 -26 15 q-20 10 -37.5 14.5t-35.5 4.5q-11 0 -23.5 -2.5t-28.5 -7.5q-17 -15 -43 -44q-72 -75 -128 -75q-41 0 -66.5 25t-25.5 65q0 28 14 52t41 44q21 16 70 32.5t68 31.5q47 35 65.5 120t18.5 377h-228l15 101h212q4 324 144 503t389 179q145 0 235.5 -73t90.5 -188 q0 -70 -42.5 -113.5t-111.5 -43.5q-62 0 -102.5 33t-40.5 84q0 39 32.5 82t32.5 53q0 30 -26.5 52.5t-65.5 22.5q-105 0 -160.5 -144t-66.5 -447z" />
<glyph unicode="&#xa4;" horiz-adv-x="1139" d="M-10 664h137q2 56 7.5 106t15.5 96h-142l41 97h125q75 256 225.5 405.5t343.5 149.5q44 0 85 -8t81 -23q28 -11 76 -38.5t68 -27.5q27 0 47.5 23.5t29.5 66.5h76l-55 -485h-92q0 192 -69 292.5t-195 100.5q-110 0 -191 -118t-125 -338h467l-41 -97h-444q-6 -45 -11 -94.5 t-10 -107.5h416l-41 -97h-374q4 -233 65 -359t170 -126q90 0 177 83.5t169 248.5l86 -23q-77 -206 -198 -311t-281 -105q-226 0 -354 153t-144 439h-182z" />
<glyph unicode="&#xa5;" horiz-adv-x="1384" d="M256 0l16 84h21q96 0 140.5 46.5t64.5 174.5l53 320h-514l16 96h473l-106 203h-342l24 96h269l-90 171l-4 8q-107 208 -232 210l14 84h674l-15 -84q-112 -2 -146.5 -23.5t-34.5 -80.5q0 -30 10 -64.5t28 -71.5l211 -401l236 389q20 32 31.5 71.5t11.5 71.5q0 61 -36.5 84 t-145.5 25l14 84h537l-17 -84q-126 -16 -240 -195l-8 -12l-116 -182h311l-16 -96h-353l-129 -203h447l-17 -96h-471l-57 -318q-6 -34 -8 -54t-2 -34q0 -74 41.5 -103.5t150.5 -31.5l-14 -84h-680z" />
<glyph unicode="&#xa6;" d="M393 408h240v-758h-240v758zM393 1432h240v-758h-240v758z" />
<glyph unicode="&#xa7;" horiz-adv-x="1022" d="M420 899q-54 0 -84.5 -27.5t-30.5 -74.5q0 -42 26.5 -97.5t80.5 -128.5q73 -98 115.5 -130.5t86.5 -32.5q43 0 71 28.5t28 71.5q0 41 -20.5 89.5t-63.5 111.5q-66 97 -117 143.5t-92 46.5zM680 1004l104 -127q77 -95 109.5 -164t32.5 -135q0 -118 -84.5 -187.5 t-228.5 -71.5q53 -64 80.5 -129.5t27.5 -130.5q0 -125 -96.5 -198.5t-262.5 -73.5q-146 0 -230.5 59.5t-84.5 161.5q0 67 44 112.5t110 45.5q53 0 87 -30.5t34 -78.5q0 -31 -35 -74.5t-35 -58.5q0 -27 26.5 -42t73.5 -15q73 0 112.5 34.5t39.5 98.5q0 45 -30.5 103.5 t-106.5 154.5l-138 172q-78 99 -108.5 164t-30.5 127q0 117 83 187.5t235 80.5q-65 84 -93 145.5t-28 118.5q0 118 99 192.5t259 74.5q140 0 226.5 -58.5t86.5 -148.5q0 -74 -44 -121t-113 -47q-54 0 -89.5 31t-35.5 77q0 39 31.5 79t31.5 50q0 26 -23.5 38t-74.5 12 q-65 0 -104 -34.5t-39 -90.5q0 -44 35.5 -105t146.5 -198z" />
<glyph unicode="&#xa8;" d="M666 1366q0 46 36 82.5t82 36.5q49 0 85 -35.5t36 -83.5q0 -53 -34 -88t-87 -35q-49 0 -83.5 35.5t-34.5 87.5zM303 1366q0 46 36.5 82.5t82.5 36.5q49 0 85 -35.5t36 -83.5q0 -53 -34.5 -88t-86.5 -35q-50 0 -84.5 35.5t-34.5 87.5z" />
<glyph unicode="&#xa9;" horiz-adv-x="1683" d="M1128 1104h50v-330h-52q-29 130 -98 201.5t-164 71.5q-112 0 -167.5 -91t-55.5 -272q0 -182 61 -278.5t177 -96.5q76 0 143.5 44.5t124.5 131.5l51 -32q-64 -108 -152 -162.5t-198 -54.5q-192 0 -318.5 122t-126.5 306q0 194 122.5 319t312.5 125q82 0 157.5 -33 t79.5 -33q22 0 33.5 13.5t19.5 48.5zM844 1311q-126 0 -242.5 -49t-204.5 -138q-89 -91 -136.5 -206t-47.5 -240q0 -130 47 -244t137 -203q93 -91 205.5 -137.5t239.5 -46.5t240.5 47.5t201.5 136.5q89 91 137.5 207.5t48.5 239.5q0 126 -48.5 244.5t-135.5 203.5 q-89 88 -205 136.5t-237 48.5zM844 1423q144 0 280.5 -56.5t241.5 -160.5q104 -104 161.5 -242.5t57.5 -285.5q0 -146 -56.5 -281.5t-162.5 -242.5q-105 -106 -240 -161.5t-284 -55.5t-283 55.5t-242 161.5q-106 104 -162.5 239t-56.5 285q0 149 55.5 283t161.5 241 q105 106 242.5 163.5t286.5 57.5z" />
<glyph unicode="&#xaa;" horiz-adv-x="952" d="M549 1266q0 80 -27 122t-80 42q-38 0 -72.5 -27.5t-62.5 -79.5q-42 -80 -67 -188.5t-25 -210.5q0 -77 28.5 -119.5t80.5 -42.5q45 0 82.5 34.5t66.5 104.5q36 82 56 178.5t20 186.5zM674 905q-6 -25 -9 -43.5t-3 -32.5q0 -18 5.5 -28t16.5 -10q30 0 68 45.5t94 150.5 l55 -24q-64 -131 -125.5 -190.5t-130.5 -59.5q-53 0 -83 31t-34 89l-12 1q-46 -67 -103.5 -100.5t-125.5 -33.5q-126 0 -197.5 74.5t-71.5 206.5q0 106 36 201.5t104 171.5q60 66 131 100.5t147 34.5q69 0 114.5 -33t65.5 -96h15l26 104h146z" />
<glyph unicode="&#xab;" horiz-adv-x="1081" d="M72 549q171 115 317.5 238.5t149.5 123.5q11 0 16.5 -7t5.5 -21q0 -31 -59 -110.5t-201 -235.5q57 -114 94 -218t37 -135q0 -15 -8.5 -24.5t-22.5 -9.5q-23 0 -48 49q-13 27 -23 42q-71 109 -134.5 184.5t-123.5 123.5zM467 549q172 115 318 238.5t149 123.5 q12 0 17 -6.5t5 -21.5q0 -31 -59 -110.5t-201 -235.5q57 -113 93 -216.5t36 -136.5q0 -15 -8.5 -24.5t-21.5 -9.5q-24 0 -46 47q-14 29 -24 45q-70 108 -133.5 183.5t-124.5 123.5z" />
<glyph unicode="&#xac;" horiz-adv-x="1706" d="M254 866h1198v-501h-229v274h-969v227z" />
<glyph unicode="&#xad;" horiz-adv-x="692" d="M63 657h512l-38 -227h-512z" />
<glyph unicode="&#xae;" horiz-adv-x="1683" d="M772 728q8 -2 16 -2.5t23 -0.5q85 0 127.5 43.5t42.5 130.5q0 62 -38.5 103.5t-98.5 41.5q-37 0 -54.5 -15.5t-17.5 -47.5v-253zM463 1100h405q147 0 236.5 -56t89.5 -145q0 -87 -64.5 -136.5t-211.5 -74.5q116 -23 172.5 -87.5t56.5 -172.5q0 -48 10 -68t33 -20 q25 0 39 31t14 88v12h55q0 -5 1 -15t1 -14q0 -90 -47 -135t-141 -45q-45 0 -80 13t-55 36q-32 37 -36 134q-2 43 -5 65q-13 87 -47.5 124.5t-100.5 37.5h-16v-244q0 -45 18 -63.5t70 -26.5v-57h-397v57q57 5 77.5 24t20.5 66v524q0 47 -19 65.5t-79 26.5v56zM844 1311 q-127 0 -244.5 -49t-204.5 -138q-88 -90 -135 -204.5t-47 -241.5q0 -130 47 -244t137 -203q93 -91 205.5 -137.5t239.5 -46.5t240.5 47.5t201.5 136.5q89 91 137.5 207.5t48.5 239.5q0 125 -49 243.5t-137 204.5q-89 88 -204 136.5t-236 48.5zM844 1423q150 0 291 -60 t245 -169q99 -102 152 -240t53 -292q0 -141 -63 -280.5t-176 -246.5q-102 -97 -232 -149t-272 -52q-109 0 -212.5 31.5t-197.5 91.5q-159 107 -246.5 269.5t-87.5 351.5q0 149 56 284t161 240q105 106 242.5 163.5t286.5 57.5z" />
<glyph unicode="&#xaf;" d="M311 1290l31 148h553l-31 -148h-553z" />
<glyph unicode="&#xb0;" horiz-adv-x="674" d="M338 1321q-69 0 -117.5 -48t-48.5 -116q0 -70 48 -118t118 -48q68 0 116 49t48 117t-48 116t-116 48zM338 1466q129 0 220 -91t91 -220q0 -128 -91.5 -219.5t-221.5 -91.5q-129 0 -219 90.5t-90 220.5q0 131 90.5 221t220.5 90z" />
<glyph unicode="&#xb1;" horiz-adv-x="1706" d="M254 213h1198v-231h-1198v231zM735 1241h238v-319h479v-232h-479v-319h-238v319h-481v232h481v319z" />
<glyph unicode="&#xb2;" horiz-adv-x="752" d="M172 733h231q73 0 109 23t49 78h66l-80 -238h-549l16 84q146 118 243.5 207.5t137.5 142.5q44 56 66 119t22 133q0 78 -38 122t-105 44q-46 0 -79.5 -19.5t-33.5 -44.5q0 -10 7 -18.5t26 -19.5q22 -14 30.5 -27t8.5 -33q0 -44 -27.5 -70t-74.5 -26q-52 0 -81.5 30.5 t-29.5 84.5q0 90 79 146t210 56q145 0 228 -61.5t83 -169.5q0 -45 -20.5 -89.5t-61.5 -90.5q-58 -66 -212 -186q-66 -51 -99 -79z" />
<glyph unicode="&#xb3;" horiz-adv-x="752" d="M459 1092l-2 -15q99 -46 142.5 -99.5t43.5 -127.5q0 -117 -101 -193.5t-257 -76.5q-119 0 -196 54t-77 134q0 53 30.5 86t78.5 33q45 0 72.5 -22.5t27.5 -59.5q0 -20 -6 -33.5t-25 -30.5l-3 -3q-23 -23 -23 -44q0 -25 23.5 -39t64.5 -14q84 0 135 66.5t51 177.5 q0 89 -47 132.5t-143 43.5h-15l13 59q6 -1 12.5 -1.5t20.5 -0.5q108 0 166.5 51t58.5 144q0 65 -35 102t-96 37q-36 0 -56 -11.5t-20 -31.5q0 -9 16.5 -34.5t16.5 -47.5q0 -34 -24 -53t-66 -19q-46 0 -72.5 24t-26.5 64q0 73 74 118.5t195 45.5q132 0 213.5 -56t81.5 -146 q0 -76 -62 -129.5t-184 -83.5z" />
<glyph unicode="&#xb4;" d="M496 1202h-105l307 303q30 29 59 43.5t56 14.5q33 0 56.5 -25.5t23.5 -60.5q0 -28 -16.5 -50t-51.5 -41z" />
<glyph unicode="&#xb5;" horiz-adv-x="1233" d="M219 190q-12 -89 -27 -239q-40 -377 -163 -377q-57 0 -92 34.5t-35 88.5q0 56 69 281t105 397l108 510h293l-106 -498q-10 -43 -15.5 -75t-5.5 -50q0 -54 28 -86.5t75 -32.5q62 0 104 55t68 171l110 516h291l-111 -525q-6 -26 -9 -49t-3 -43q0 -43 19.5 -67.5t54.5 -24.5 q26 0 49.5 13.5t40.5 37.5q10 14 25 42q35 63 65 63q11 0 20 -12t9 -27q0 -30 -21 -87t-53 -104q-41 -62 -95.5 -92t-125.5 -30q-90 0 -136.5 47.5t-54.5 146.5q-36 -97 -98.5 -145.5t-150.5 -48.5q-101 0 -161 54.5t-71 155.5z" />
<glyph unicode="&#xb6;" d="M997 1479v-123h-106v-1356h-176v1356h-150v-1356h-174v784q-164 6 -263 101t-99 245q0 158 106 253.5t283 95.5h579z" />
<glyph unicode="&#xb7;" horiz-adv-x="569" d="M129 748q0 62 44.5 106.5t107.5 44.5q62 0 107.5 -45t45.5 -106q0 -65 -44.5 -109.5t-108.5 -44.5t-108 44.5t-44 109.5z" />
<glyph unicode="&#xb8;" d="M78 -375l41 90q76 -41 132 -58t107 -17q48 0 72.5 22t24.5 66q0 39 -26.5 60.5t-76.5 21.5q-18 0 -80 -13l-10 -2l66 205h69l-34 -112q16 2 32.5 3.5t32.5 2.5q86 0 136 -46t50 -124q0 -85 -61 -133t-168 -48q-57 0 -129 19t-178 63z" />
<glyph unicode="&#xb9;" horiz-adv-x="752" d="M494 1491h69l-139 -711q-3 -16 -4.5 -29.5t-1.5 -23.5q0 -45 28.5 -62.5t102.5 -17.5l-10 -51h-455l12 51h13q65 0 95.5 27.5t43.5 103.5l88 449q2 15 3 28.5t1 26.5q0 36 -25.5 51t-91.5 15q-22 0 -34.5 -0.5t-24.5 -1.5l10 47q130 8 205.5 31.5t114.5 66.5z" />
<glyph unicode="&#xba;" horiz-adv-x="805" d="M207 881q0 -60 27.5 -90.5t80.5 -30.5q38 0 68 23.5t51 68.5q19 42 35 100t31 140q10 56 15 110.5t5 106.5q0 60 -26 90.5t-78 30.5q-37 0 -67 -24t-52 -71q-18 -36 -32 -87t-29 -140q-17 -94 -23 -143t-6 -84zM326 700q-150 0 -229 87.5t-79 252.5q0 192 113 319.5 t279 127.5q147 0 227 -84t80 -238q0 -205 -110.5 -335t-280.5 -130z" />
<glyph unicode="&#xbb;" horiz-adv-x="1081" d="M522 512q-171 -115 -317.5 -238.5t-149.5 -123.5q-12 0 -18 7t-6 21q0 31 59 110t201 236q-57 111 -93 215.5t-36 137.5q0 16 8 25t23 9q23 0 45 -47q14 -29 24 -45q66 -103 131.5 -180.5t128.5 -126.5zM918 512q-172 -115 -319.5 -238.5t-149.5 -123.5q-12 0 -17.5 7 t-5.5 21q0 31 59.5 110t200.5 236q-56 111 -92.5 215.5t-36.5 137.5q0 16 8 25t23 9q23 0 46 -47q13 -29 23 -45q66 -103 132 -180.5t129 -126.5z" />
<glyph unicode="&#xbc;" horiz-adv-x="1776" d="M1579 836h127l-100 -512h127l-15 -80h-127l-16 -72q-3 -10 -4.5 -21t-1.5 -28q0 -42 25.5 -58t98.5 -18l-7 -47h-433l9 47h14q63 0 91 24t44 99l16 74h-360l14 80zM1513 688l-331 -342l-6 -22h268l80 360zM375 -27l909 1543h115l-907 -1543h-117zM469 1491h68l-134 -664 q-3 -18 -4.5 -29.5t-1.5 -19.5q0 -41 27 -57.5t98 -18.5l-10 -47h-432l10 47h12q63 0 91.5 25.5t42.5 97.5l82 419q2 7 3 17t1 33q0 35 -23 48.5t-86 13.5h-57l8 43q121 6 194.5 28.5t110.5 63.5z" />
<glyph unicode="&#xbd;" horiz-adv-x="1776" d="M1225 127h219q70 0 103.5 22t45.5 74h64l-76 -223h-524l14 78q143 113 236 196t131 132q41 52 62.5 111t21.5 122q0 73 -37.5 115.5t-102.5 42.5q-43 0 -74.5 -19.5t-31.5 -42.5q0 -9 7.5 -17.5t23.5 -17.5q21 -13 28.5 -25t7.5 -32q0 -41 -26 -64.5t-72 -23.5 q-48 0 -76 29t-28 78q0 84 75.5 136t200.5 52q139 0 217 -57t78 -158q0 -43 -18.5 -85t-57.5 -85q-52 -57 -191 -162l-106 -82zM375 -27l909 1543h115l-907 -1543h-117zM469 1491h68l-134 -664q-3 -18 -4.5 -29.5t-1.5 -19.5q0 -41 27 -57.5t98 -18.5l-10 -47h-432l10 47h12 q63 0 91.5 25.5t42.5 97.5l82 419q2 7 3 17t1 33q0 35 -23 48.5t-86 13.5h-57l8 43q121 6 194.5 28.5t110.5 63.5z" />
<glyph unicode="&#xbe;" horiz-adv-x="1778" d="M1579 836h127l-100 -512h127l-15 -80h-127l-16 -72q-3 -10 -4.5 -21t-1.5 -28q0 -42 25.5 -58t98.5 -18l-7 -47h-433l9 47h14q63 0 91 24t44 99l16 74h-360l14 80zM1513 688l-331 -342l-6 -22h268l80 360zM375 -27l909 1543h115l-907 -1543h-117zM438 1118l-2 -14 q93 -41 134.5 -91.5t41.5 -121.5q0 -108 -96 -179t-246 -71q-111 0 -184.5 50.5t-73.5 123.5q0 51 28.5 81t76.5 30q42 0 68 -21t26 -55q0 -19 -5.5 -31.5t-23.5 -27.5v-1q-26 -22 -26 -42q0 -24 22 -37t62 -13q81 0 129.5 62t48.5 166q0 83 -44.5 123.5t-135.5 40.5h-17 l15 55q4 -1 11 -1.5t19 -0.5q103 0 159 47.5t56 134.5q0 60 -33 94.5t-92 34.5q-33 0 -52 -10.5t-19 -28.5q0 -8 15 -32.5t15 -45.5q0 -32 -22 -49.5t-64 -17.5q-43 0 -68.5 22t-25.5 60q0 67 71 110t185 43q127 0 204 -52t77 -136q0 -71 -59 -121t-175 -78z" />
<glyph unicode="&#xbf;" d="M823 1372q0 -61 -44 -105t-105 -44t-104.5 43.5t-43.5 105.5q0 63 42.5 106.5t105.5 43.5t106 -43.5t43 -106.5zM584 995l79 -8q-3 -78 -12 -135t-24 -100q-26 -79 -112 -179l-22 -27l-17 -20q-93 -107 -93 -223q0 -105 52.5 -172.5t133.5 -67.5q44 0 73.5 17.5 t29.5 40.5q0 10 -38 51.5t-38 77.5q0 59 35.5 94t95.5 35q72 0 111 -39.5t39 -112.5q0 -118 -104 -185t-290 -67q-191 0 -303 86.5t-112 233.5q0 60 18 113t53 98q48 62 161 125q28 15 40 22q142 84 188.5 155.5t55.5 186.5z" />
<glyph unicode="&#xc0;" horiz-adv-x="1440" d="M690 1165l-295 -577h420l-104 586zM756 1489h207l260 -1167q34 -157 73.5 -192.5t130.5 -35.5h17l-17 -94h-725l19 94q95 5 126.5 29.5t31.5 89.5q0 14 -2 29.5t-5 30.5l-41 221h-487l-70 -146q-21 -45 -34 -87t-13 -64q0 -53 36.5 -76t129.5 -27l-16 -94h-527l17 94 q85 9 138.5 48.5t117.5 158.5zM1034 1630h-105l-260 191q-36 27 -49.5 45.5t-13.5 38.5q0 37 24 62.5t60 25.5q26 0 49 -14.5t49 -47.5z" />
<glyph unicode="&#xc1;" horiz-adv-x="1440" d="M690 1165l-295 -577h420l-104 586zM756 1489h207l260 -1167q34 -157 73.5 -192.5t130.5 -35.5h17l-17 -94h-725l19 94q95 5 126.5 29.5t31.5 89.5q0 14 -2 29.5t-5 30.5l-41 221h-487l-70 -146q-21 -45 -34 -87t-13 -64q0 -53 36.5 -76t129.5 -27l-16 -94h-527l17 94 q85 9 138.5 48.5t117.5 158.5zM772 1630h-105l307 303q30 29 59 43.5t56 14.5q33 0 56.5 -25.5t23.5 -60.5q0 -28 -16.5 -50t-51.5 -41z" />
<glyph unicode="&#xc2;" horiz-adv-x="1440" d="M690 1165l-295 -577h420l-104 586zM756 1489h207l260 -1167q34 -157 73.5 -192.5t130.5 -35.5h17l-17 -94h-725l19 94q95 5 126.5 29.5t31.5 89.5q0 14 -2 29.5t-5 30.5l-41 221h-487l-70 -146q-21 -45 -34 -87t-13 -64q0 -53 36.5 -76t129.5 -27l-16 -94h-527l17 94 q85 9 138.5 48.5t117.5 158.5zM1132 1630h-80l-168 178l-246 -178h-102l305 348h127z" />
<glyph unicode="&#xc3;" horiz-adv-x="1440" d="M690 1165l-295 -577h420l-104 586zM756 1489h207l260 -1167q34 -157 73.5 -192.5t130.5 -35.5h17l-17 -94h-725l19 94q95 5 126.5 29.5t31.5 89.5q0 14 -2 29.5t-5 30.5l-41 221h-487l-70 -146q-21 -45 -34 -87t-13 -64q0 -53 36.5 -76t129.5 -27l-16 -94h-527l17 94 q85 9 138.5 48.5t117.5 158.5zM1167 1935q-21 -115 -72 -175t-127 -60q-15 0 -49 7q-5 1 -6 1l-107 27q-13 4 -25.5 6t-23.5 2q-39 0 -62.5 -21.5t-37.5 -70.5h-66q18 115 70.5 178t128.5 63q16 0 31 -2t28 -6l89 -22q24 -6 38 -8.5t23 -2.5q43 0 67.5 20t34.5 64h66z" />
<glyph unicode="&#xc4;" horiz-adv-x="1440" d="M690 1165l-295 -577h420l-104 586zM756 1489h207l260 -1167q34 -157 73.5 -192.5t130.5 -35.5h17l-17 -94h-725l19 94q95 5 126.5 29.5t31.5 89.5q0 14 -2 29.5t-5 30.5l-41 221h-487l-70 -146q-21 -45 -34 -87t-13 -64q0 -53 36.5 -76t129.5 -27l-16 -94h-527l17 94 q85 9 138.5 48.5t117.5 158.5zM942 1794q0 46 36 82.5t82 36.5q49 0 85 -35.5t36 -83.5q0 -53 -34 -88t-87 -35q-49 0 -83.5 35.5t-34.5 87.5zM579 1794q0 46 36.5 82.5t82.5 36.5q49 0 85 -35.5t36 -83.5q0 -53 -34.5 -88t-86.5 -35q-50 0 -84.5 35.5t-34.5 87.5z" />
<glyph unicode="&#xc5;" horiz-adv-x="1440" d="M748 1757q0 -49 34.5 -84t83.5 -35q48 0 83.5 36t35.5 83q0 48 -35.5 83.5t-83.5 35.5q-49 0 -83.5 -34.5t-34.5 -84.5zM651 1757q0 91 62.5 153t154.5 62q90 0 151.5 -62.5t61.5 -152.5q0 -89 -62 -152t-151 -63q-90 0 -153.5 63t-63.5 152zM739 1460h230l254 -1138 q34 -157 73.5 -192.5t130.5 -35.5h17l-17 -94h-725l19 94q95 5 126.5 29.5t31.5 89.5q0 14 -2 29.5t-5 30.5l-41 221h-487l-70 -146q-21 -45 -34 -87t-13 -64q0 -53 36.5 -76t129.5 -27l-16 -94h-527l17 94q85 9 138.5 48.5t117.5 158.5zM690 1165l-295 -577h420l-104 586z " />
<glyph unicode="&#xc6;" horiz-adv-x="2214" d="M469 662h432l131 733h-55zM700 1184q23 31 36.5 64t13.5 52q0 43 -51 66.5t-154 28.5l16 94h1563l-51 -490l-101 7q-2 218 -69.5 303.5t-237.5 85.5h-80q-127 0 -174 -42.5t-72 -181.5l-59 -335h51q115 0 176.5 54t104.5 195h94q-34 -145 -64.5 -301.5t-62.5 -351.5 l-94 4q6 35 9 67t3 58q0 94 -39.5 136t-128.5 42h-67l-74 -419q-1 -8 -4 -24q-10 -65 -10 -79q0 -68 46.5 -95.5t170.5 -27.5h65q162 0 275 94.5t196 300.5l109 -4l-111 -485h-1335l16 94h25q96 0 143 49.5t66 173.5l41 254h-473l-129 -210l-10 -16q-60 -101 -60 -146 q0 -49 31.5 -72t111.5 -33l-16 -94h-537l17 94q79 19 154.5 77.5t140.5 152.5z" />
<glyph unicode="&#xc7;" horiz-adv-x="1470" d="M1327 385q-101 -209 -252 -312.5t-352 -103.5q-286 0 -462.5 190.5t-176.5 497.5q0 168 57.5 320.5t167.5 275.5q118 134 260.5 202.5t300.5 68.5q55 0 107.5 -8t104.5 -23q35 -11 96 -42.5t86 -31.5q32 0 58.5 26t41.5 73h96l-82 -566h-96q0 224 -92 348.5t-256 124.5 q-84 0 -151.5 -38t-127.5 -119q-89 -121 -137.5 -292t-48.5 -366q0 -252 83.5 -393t231.5 -141q126 0 241.5 86.5t227.5 265.5zM402 -375l41 90q76 -41 132 -58t107 -17q48 0 72.5 22t24.5 66q0 39 -26.5 60.5t-76.5 21.5q-18 0 -80 -13l-10 -2l66 205h69l-34 -112 q16 2 32.5 3.5t32.5 2.5q86 0 136 -46t50 -124q0 -85 -61 -133t-168 -48q-57 0 -129 19t-178 63z" />
<glyph unicode="&#xc8;" horiz-adv-x="1595" d="M1526 1489l-53 -490l-99 7q-2 218 -69.5 303.5t-237.5 85.5h-106q-128 0 -175 -42.5t-71 -181.5l-60 -335h54q114 0 175.5 54t104.5 195h92q-31 -133 -59.5 -280t-65.5 -373l-96 4q6 35 9 67t3 58q0 94 -39.5 136t-127.5 42h-66l-74 -420q-1 -8 -3 -22q-11 -66 -11 -80 q0 -68 46 -95.5t169 -27.5h94q162 0 275 94.5t196 300.5l107 -4l-109 -485h-1374l18 94h21q97 0 142 45t69 178l149 852q5 25 7.5 48t3.5 43q0 71 -37.5 99.5t-143.5 35.5l17 94h1325zM1092 1630h-105l-260 191q-36 27 -49.5 45.5t-13.5 38.5q0 37 24 62.5t60 25.5 q26 0 49 -14.5t49 -47.5z" />
<glyph unicode="&#xc9;" horiz-adv-x="1595" d="M1526 1489l-53 -490l-99 7q-2 218 -69.5 303.5t-237.5 85.5h-106q-128 0 -175 -42.5t-71 -181.5l-60 -335h54q114 0 175.5 54t104.5 195h92q-31 -133 -59.5 -280t-65.5 -373l-96 4q6 35 9 67t3 58q0 94 -39.5 136t-127.5 42h-66l-74 -420q-1 -8 -3 -22q-11 -66 -11 -80 q0 -68 46 -95.5t169 -27.5h94q162 0 275 94.5t196 300.5l107 -4l-109 -485h-1374l18 94h21q97 0 142 45t69 178l149 852q5 25 7.5 48t3.5 43q0 71 -37.5 99.5t-143.5 35.5l17 94h1325zM830 1630h-105l307 303q30 29 59 43.5t56 14.5q33 0 56.5 -25.5t23.5 -60.5 q0 -28 -16.5 -50t-51.5 -41z" />
<glyph unicode="&#xca;" horiz-adv-x="1595" d="M1526 1489l-53 -490l-99 7q-2 218 -69.5 303.5t-237.5 85.5h-106q-128 0 -175 -42.5t-71 -181.5l-60 -335h54q114 0 175.5 54t104.5 195h92q-31 -133 -59.5 -280t-65.5 -373l-96 4q6 35 9 67t3 58q0 94 -39.5 136t-127.5 42h-66l-74 -420q-1 -8 -3 -22q-11 -66 -11 -80 q0 -68 46 -95.5t169 -27.5h94q162 0 275 94.5t196 300.5l107 -4l-109 -485h-1374l18 94h21q97 0 142 45t69 178l149 852q5 25 7.5 48t3.5 43q0 71 -37.5 99.5t-143.5 35.5l17 94h1325zM1190 1630h-80l-168 178l-246 -178h-102l305 348h127z" />
<glyph unicode="&#xcb;" horiz-adv-x="1595" d="M1526 1489l-53 -490l-99 7q-2 218 -69.5 303.5t-237.5 85.5h-106q-128 0 -175 -42.5t-71 -181.5l-60 -335h54q114 0 175.5 54t104.5 195h92q-31 -133 -59.5 -280t-65.5 -373l-96 4q6 35 9 67t3 58q0 94 -39.5 136t-127.5 42h-66l-74 -420q-1 -8 -3 -22q-11 -66 -11 -80 q0 -68 46 -95.5t169 -27.5h94q162 0 275 94.5t196 300.5l107 -4l-109 -485h-1374l18 94h21q97 0 142 45t69 178l149 852q5 25 7.5 48t3.5 43q0 71 -37.5 99.5t-143.5 35.5l17 94h1325zM1000 1794q0 46 36 82.5t82 36.5q49 0 85 -35.5t36 -83.5q0 -53 -34 -88t-87 -35 q-49 0 -83.5 35.5t-34.5 87.5zM637 1794q0 46 36.5 82.5t82.5 36.5q49 0 85 -35.5t36 -83.5q0 -53 -34.5 -88t-86.5 -35q-50 0 -84.5 35.5t-34.5 87.5z" />
<glyph unicode="&#xcc;" horiz-adv-x="915" d="M969 1489l-19 -94h-20q-98 0 -144 -46t-69 -178l-150 -852q-5 -34 -7.5 -55.5t-2.5 -34.5q0 -70 40 -100t144 -35l-16 -94h-770l18 94h21q97 0 142 45t69 178l149 852q5 25 7.5 48t3.5 43q0 71 -37.5 99.5t-143.5 35.5l17 94h768zM781 1630h-105l-260 191 q-36 27 -49.5 45.5t-13.5 38.5q0 37 24 62.5t60 25.5q26 0 49 -14.5t49 -47.5z" />
<glyph unicode="&#xcd;" horiz-adv-x="915" d="M969 1489l-19 -94h-20q-98 0 -144 -46t-69 -178l-150 -852q-5 -34 -7.5 -55.5t-2.5 -34.5q0 -70 40 -100t144 -35l-16 -94h-770l18 94h21q97 0 142 45t69 178l149 852q5 25 7.5 48t3.5 43q0 71 -37.5 99.5t-143.5 35.5l17 94h768zM519 1630h-105l307 303q30 29 59 43.5 t56 14.5q33 0 56.5 -25.5t23.5 -60.5q0 -28 -16.5 -50t-51.5 -41z" />
<glyph unicode="&#xce;" horiz-adv-x="915" d="M969 1489l-19 -94h-20q-98 0 -144 -46t-69 -178l-150 -852q-5 -34 -7.5 -55.5t-2.5 -34.5q0 -70 40 -100t144 -35l-16 -94h-770l18 94h21q97 0 142 45t69 178l149 852q5 25 7.5 48t3.5 43q0 71 -37.5 99.5t-143.5 35.5l17 94h768zM879 1630h-80l-168 178l-246 -178h-102 l305 348h127z" />
<glyph unicode="&#xcf;" horiz-adv-x="915" d="M969 1489l-19 -94h-20q-98 0 -144 -46t-69 -178l-150 -852q-5 -34 -7.5 -55.5t-2.5 -34.5q0 -70 40 -100t144 -35l-16 -94h-770l18 94h21q97 0 142 45t69 178l149 852q5 25 7.5 48t3.5 43q0 71 -37.5 99.5t-143.5 35.5l17 94h768zM689 1794q0 46 36 82.5t82 36.5 q49 0 85 -35.5t36 -83.5q0 -53 -34 -88t-87 -35q-49 0 -83.5 35.5t-34.5 87.5zM326 1794q0 46 36.5 82.5t82.5 36.5q49 0 85 -35.5t36 -83.5q0 -53 -34.5 -88t-86.5 -35q-50 0 -84.5 35.5t-34.5 87.5z" />
<glyph unicode="&#xd0;" horiz-adv-x="1651" d="M844 1489q366 0 558.5 -159.5t192.5 -461.5q0 -183 -62.5 -341t-180.5 -277q-126 -124 -297 -187t-381 -63h-707l17 94h20q97 0 142 46t69 177l74 418h-295l18 94h293l60 341q4 25 7 49t3 41q0 72 -39 101t-145 34l16 94h637zM645 735l-72 -416q-5 -38 -7.5 -58.5 t-2.5 -33.5q0 -69 39.5 -99t132.5 -30q80 0 146.5 33t128.5 102q46 53 84.5 134.5t66.5 185.5q34 127 51 234t17 192q0 198 -79 308t-220 110q-92 0 -136.5 -47t-68.5 -179l-63 -342h294l-16 -94h-295z" />
<glyph unicode="&#xd1;" horiz-adv-x="1667" d="M621 1489l600 -1112h20l143 792q6 38 8.5 57t2.5 31q0 74 -42 104t-153 34l17 94h518l-17 -94h-20q-100 0 -145.5 -46.5t-67.5 -177.5l-205 -1171h-225l-590 1112h-23l-143 -793q-6 -37 -8 -56t-2 -32q0 -72 39.5 -102t144.5 -35l-16 -94h-508l18 94h21q97 0 142 45 t69 178l149 852q5 25 7.5 48t2.5 43q0 71 -37 99.5t-143 35.5l17 94h426zM1292 1935q-21 -115 -72 -175t-127 -60q-15 0 -49 7q-5 1 -6 1l-107 27q-13 4 -25.5 6t-23.5 2q-39 0 -62.5 -21.5t-37.5 -70.5h-66q18 115 70.5 178t128.5 63q16 0 31 -2t28 -6l89 -22 q24 -6 38 -8.5t23 -2.5q43 0 67.5 20t34.5 64h66z" />
<glyph unicode="&#xd2;" horiz-adv-x="1554" d="M446 412q0 -184 57 -269.5t179 -85.5q79 0 146 47t114 136q78 145 124 368.5t46 466.5q0 185 -56.5 271t-176.5 86q-79 0 -146 -46.5t-115 -134.5q-77 -143 -124.5 -371t-47.5 -468zM690 -31q-297 0 -452.5 167t-155.5 487q0 217 77 406.5t216 313.5q99 89 225.5 134 t273.5 45q294 0 450.5 -168t156.5 -484q0 -217 -77.5 -408t-215.5 -315q-98 -86 -225.5 -132t-272.5 -46zM1088 1630h-105l-260 191q-36 27 -49.5 45.5t-13.5 38.5q0 37 24 62.5t60 25.5q26 0 49 -14.5t49 -47.5z" />
<glyph unicode="&#xd3;" horiz-adv-x="1554" d="M446 412q0 -184 57 -269.5t179 -85.5q79 0 146 47t114 136q78 145 124 368.5t46 466.5q0 185 -56.5 271t-176.5 86q-79 0 -146 -46.5t-115 -134.5q-77 -143 -124.5 -371t-47.5 -468zM690 -31q-297 0 -452.5 167t-155.5 487q0 217 77 406.5t216 313.5q99 89 225.5 134 t273.5 45q294 0 450.5 -168t156.5 -484q0 -217 -77.5 -408t-215.5 -315q-98 -86 -225.5 -132t-272.5 -46zM826 1630h-105l307 303q30 29 59 43.5t56 14.5q33 0 56.5 -25.5t23.5 -60.5q0 -28 -16.5 -50t-51.5 -41z" />
<glyph unicode="&#xd4;" horiz-adv-x="1554" d="M446 412q0 -184 57 -269.5t179 -85.5q79 0 146 47t114 136q78 145 124 368.5t46 466.5q0 185 -56.5 271t-176.5 86q-79 0 -146 -46.5t-115 -134.5q-77 -143 -124.5 -371t-47.5 -468zM690 -31q-297 0 -452.5 167t-155.5 487q0 217 77 406.5t216 313.5q99 89 225.5 134 t273.5 45q294 0 450.5 -168t156.5 -484q0 -217 -77.5 -408t-215.5 -315q-98 -86 -225.5 -132t-272.5 -46zM1186 1630h-80l-168 178l-246 -178h-102l305 348h127z" />
<glyph unicode="&#xd5;" horiz-adv-x="1554" d="M446 412q0 -184 57 -269.5t179 -85.5q79 0 146 47t114 136q78 145 124 368.5t46 466.5q0 185 -56.5 271t-176.5 86q-79 0 -146 -46.5t-115 -134.5q-77 -143 -124.5 -371t-47.5 -468zM690 -31q-297 0 -452.5 167t-155.5 487q0 217 77 406.5t216 313.5q99 89 225.5 134 t273.5 45q294 0 450.5 -168t156.5 -484q0 -217 -77.5 -408t-215.5 -315q-98 -86 -225.5 -132t-272.5 -46zM1221 1935q-21 -115 -72 -175t-127 -60q-15 0 -49 7q-5 1 -6 1l-107 27q-13 4 -25.5 6t-23.5 2q-39 0 -62.5 -21.5t-37.5 -70.5h-66q18 115 70.5 178t128.5 63 q16 0 31 -2t28 -6l89 -22q24 -6 38 -8.5t23 -2.5q43 0 67.5 20t34.5 64h66z" />
<glyph unicode="&#xd6;" horiz-adv-x="1554" d="M446 412q0 -184 57 -269.5t179 -85.5q79 0 146 47t114 136q78 145 124 368.5t46 466.5q0 185 -56.5 271t-176.5 86q-79 0 -146 -46.5t-115 -134.5q-77 -143 -124.5 -371t-47.5 -468zM690 -31q-297 0 -452.5 167t-155.5 487q0 217 77 406.5t216 313.5q99 89 225.5 134 t273.5 45q294 0 450.5 -168t156.5 -484q0 -217 -77.5 -408t-215.5 -315q-98 -86 -225.5 -132t-272.5 -46zM996 1794q0 46 36 82.5t82 36.5q49 0 85 -35.5t36 -83.5q0 -53 -34 -88t-87 -35q-49 0 -83.5 35.5t-34.5 87.5zM633 1794q0 46 36.5 82.5t82.5 36.5q49 0 85 -35.5 t36 -83.5q0 -53 -34.5 -88t-86.5 -35q-50 0 -84.5 35.5t-34.5 87.5z" />
<glyph unicode="&#xd7;" horiz-adv-x="1706" d="M430 1214l440 -440l441 440l162 -161l-441 -443l441 -440l-162 -162l-441 441l-440 -441l-162 162l441 440l-441 443z" />
<glyph unicode="&#xd8;" horiz-adv-x="1554" d="M1100 1120l-615 -909q25 -78 71.5 -115t121.5 -37q94 0 170.5 76t138.5 232q58 147 86.5 307.5t28.5 339.5q0 43 -0.5 64.5t-1.5 41.5zM459 375l612 907q-14 69 -64 109.5t-122 40.5q-75 0 -141 -49.5t-117 -143.5q-81 -149 -126.5 -342t-45.5 -389q0 -47 1 -76t3 -57z M276 104q-97 96 -144.5 225.5t-47.5 299.5q0 218 77.5 404.5t219.5 307.5q101 88 231 134.5t273 46.5q81 0 156.5 -17t146.5 -51l110 162h134l-152 -227q100 -86 149.5 -217.5t49.5 -311.5q0 -202 -69 -376.5t-200 -301.5q-105 -104 -241.5 -158.5t-292.5 -54.5 q-87 0 -164 17.5t-145 52.5l-150 -223h-137z" />
<glyph unicode="&#xd9;" horiz-adv-x="1714" d="M338 1169q5 26 7.5 48.5t2.5 42.5q0 71 -37 99.5t-143 35.5l16 94h768l-18 -94h-21q-98 0 -143.5 -46t-69.5 -178l-112 -634q-9 -51 -13 -93t-4 -79q0 -139 77 -216t214 -77q190 0 305.5 132.5t163.5 407.5l99 557l8 57q2 19 2 31q0 75 -43.5 105.5t-155.5 32.5l16 94 h527l-17 -94h-20q-99 0 -144 -46t-67 -178l-109 -614q-54 -309 -213.5 -448.5t-457.5 -139.5q-254 0 -397.5 118t-143.5 327q0 23 2.5 51t7.5 61zM1207 1630h-105l-260 191q-36 27 -49.5 45.5t-13.5 38.5q0 37 24 62.5t60 25.5q26 0 49 -14.5t49 -47.5z" />
<glyph unicode="&#xda;" horiz-adv-x="1714" d="M338 1169q5 26 7.5 48.5t2.5 42.5q0 71 -37 99.5t-143 35.5l16 94h768l-18 -94h-21q-98 0 -143.5 -46t-69.5 -178l-112 -634q-9 -51 -13 -93t-4 -79q0 -139 77 -216t214 -77q190 0 305.5 132.5t163.5 407.5l99 557l8 57q2 19 2 31q0 75 -43.5 105.5t-155.5 32.5l16 94 h527l-17 -94h-20q-99 0 -144 -46t-67 -178l-109 -614q-54 -309 -213.5 -448.5t-457.5 -139.5q-254 0 -397.5 118t-143.5 327q0 23 2.5 51t7.5 61zM945 1630h-105l307 303q30 29 59 43.5t56 14.5q33 0 56.5 -25.5t23.5 -60.5q0 -28 -16.5 -50t-51.5 -41z" />
<glyph unicode="&#xdb;" horiz-adv-x="1714" d="M338 1169q5 26 7.5 48.5t2.5 42.5q0 71 -37 99.5t-143 35.5l16 94h768l-18 -94h-21q-98 0 -143.5 -46t-69.5 -178l-112 -634q-9 -51 -13 -93t-4 -79q0 -139 77 -216t214 -77q190 0 305.5 132.5t163.5 407.5l99 557l8 57q2 19 2 31q0 75 -43.5 105.5t-155.5 32.5l16 94 h527l-17 -94h-20q-99 0 -144 -46t-67 -178l-109 -614q-54 -309 -213.5 -448.5t-457.5 -139.5q-254 0 -397.5 118t-143.5 327q0 23 2.5 51t7.5 61zM1305 1630h-80l-168 178l-246 -178h-102l305 348h127z" />
<glyph unicode="&#xdc;" horiz-adv-x="1714" d="M338 1169q5 26 7.5 48.5t2.5 42.5q0 71 -37 99.5t-143 35.5l16 94h768l-18 -94h-21q-98 0 -143.5 -46t-69.5 -178l-112 -634q-9 -51 -13 -93t-4 -79q0 -139 77 -216t214 -77q190 0 305.5 132.5t163.5 407.5l99 557l8 57q2 19 2 31q0 75 -43.5 105.5t-155.5 32.5l16 94 h527l-17 -94h-20q-99 0 -144 -46t-67 -178l-109 -614q-54 -309 -213.5 -448.5t-457.5 -139.5q-254 0 -397.5 118t-143.5 327q0 23 2.5 51t7.5 61zM1115 1794q0 46 36 82.5t82 36.5q49 0 85 -35.5t36 -83.5q0 -53 -34 -88t-87 -35q-49 0 -83.5 35.5t-34.5 87.5zM752 1794 q0 46 36.5 82.5t82.5 36.5q49 0 85 -35.5t36 -83.5q0 -53 -34.5 -88t-86.5 -35q-50 0 -84.5 35.5t-34.5 87.5z" />
<glyph unicode="&#xdd;" horiz-adv-x="1346" d="M229 1178l-6 11q-112 206 -239 206h-4l16 94h741l-16 -94q-108 -4 -144 -27t-36 -82q0 -26 10.5 -60.5t30.5 -70.5l225 -407l256 393q20 32 32.5 71.5t12.5 71.5q0 61 -39 85t-143 26l16 94h553l-16 -94q-78 -6 -133 -44.5t-134 -162.5l-340 -529l-59 -340 q-5 -34 -7.5 -55t-2.5 -35q0 -76 45.5 -105.5t167.5 -29.5l-17 -94h-821l17 94q6 0 18 -1t18 -1q102 0 149 47t71 178l59 345zM734 1630h-105l307 303q30 29 59 43.5t56 14.5q33 0 56.5 -25.5t23.5 -60.5q0 -28 -16.5 -50t-51.5 -41z" />
<glyph unicode="&#xde;" horiz-adv-x="1470" d="M719 1171h139q278 0 425 -98t147 -282q0 -203 -171.5 -322t-467.5 -119q-54 0 -106.5 3.5t-107.5 10.5l-10 -45q-5 -28 -7.5 -49t-2.5 -37q0 -79 46 -109t173 -30l-16 -94h-805l18 94h21q97 0 142 45t69 178l149 852q5 25 7.5 48t3.5 43q0 71 -37.5 99.5t-143.5 35.5 l17 94h768l-17 -94h-24q-96 0 -144 -51t-65 -173zM592 459q46 -5 87 -7.5t79 -2.5q159 0 228 95.5t69 315.5q0 102 -51.5 159.5t-143.5 57.5q-88 0 -132.5 -46t-63.5 -159z" />
<glyph unicode="&#xdf;" horiz-adv-x="1208" d="M698 1556q179 0 283 -88t104 -237q0 -81 -28.5 -144t-89.5 -116q-40 -36 -99 -63t-59 -38q0 -10 56 -35.5t91 -54.5q50 -40 75.5 -109t25.5 -163q0 -115 -45 -227.5t-121 -188.5q-62 -60 -137 -92.5t-154 -32.5q-102 0 -163.5 52.5t-61.5 138.5q0 59 29.5 94t80.5 35 q46 0 74.5 -26.5t28.5 -67.5q0 -30 -17.5 -64.5t-17.5 -40.5q0 -14 12.5 -23.5t32.5 -9.5q91 0 143 138t52 385q0 94 -29.5 153t-87.5 80q-21 8 -58 15q-59 11 -59 44q0 42 68.5 53t89.5 23q57 34 89 130t32 237q0 78 -32 117.5t-95 39.5q-55 0 -101.5 -34t-81.5 -101 q-73 -141 -163 -715l-23 -147q-85 -531 -194.5 -700.5t-323.5 -169.5q-93 0 -146 42.5t-53 116.5q0 66 34.5 104t94.5 38q51 0 80 -28t29 -79q0 -25 -10.5 -52.5t-10.5 -31.5q0 -8 10.5 -14t24.5 -6q111 0 199 588l12 81l17 112q105 698 225 884q63 97 157 147.5t211 50.5z " />
<glyph unicode="&#xe0;" horiz-adv-x="1270" d="M731 778q0 115 -36 174.5t-105 59.5q-52 0 -98 -39t-82 -113q-56 -113 -89.5 -267.5t-33.5 -303.5q0 -111 37 -170.5t106 -59.5q61 0 111 49.5t90 149.5q47 117 73.5 255.5t26.5 264.5zM897 262q-9 -41 -12.5 -65.5t-3.5 -42.5q0 -26 8 -41t22 -15q41 0 91 65.5 t124 215.5l74 -33q-86 -188 -167 -273t-173 -85q-71 0 -111 45t-45 129h-16q-61 -96 -137.5 -143.5t-169.5 -47.5q-168 0 -262 105.5t-94 294.5q0 151 47.5 288t138.5 246q78 93 172.5 142t198.5 49q92 0 152.5 -47t86.5 -138h19l37 152h192zM881 1202h-105l-260 191 q-36 27 -49.5 45.5t-13.5 38.5q0 37 24 62.5t60 25.5q26 0 49 -14.5t49 -47.5z" />
<glyph unicode="&#xe1;" horiz-adv-x="1270" d="M731 778q0 115 -36 174.5t-105 59.5q-52 0 -98 -39t-82 -113q-56 -113 -89.5 -267.5t-33.5 -303.5q0 -111 37 -170.5t106 -59.5q61 0 111 49.5t90 149.5q47 117 73.5 255.5t26.5 264.5zM897 262q-9 -41 -12.5 -65.5t-3.5 -42.5q0 -26 8 -41t22 -15q41 0 91 65.5 t124 215.5l74 -33q-86 -188 -167 -273t-173 -85q-71 0 -111 45t-45 129h-16q-61 -96 -137.5 -143.5t-169.5 -47.5q-168 0 -262 105.5t-94 294.5q0 151 47.5 288t138.5 246q78 93 172.5 142t198.5 49q92 0 152.5 -47t86.5 -138h19l37 152h192zM619 1202h-105l307 303 q30 29 59 43.5t56 14.5q33 0 56.5 -25.5t23.5 -60.5q0 -28 -16.5 -50t-51.5 -41z" />
<glyph unicode="&#xe2;" horiz-adv-x="1270" d="M731 778q0 115 -36 174.5t-105 59.5q-52 0 -98 -39t-82 -113q-56 -113 -89.5 -267.5t-33.5 -303.5q0 -111 37 -170.5t106 -59.5q61 0 111 49.5t90 149.5q47 117 73.5 255.5t26.5 264.5zM897 262q-9 -41 -12.5 -65.5t-3.5 -42.5q0 -26 8 -41t22 -15q41 0 91 65.5 t124 215.5l74 -33q-86 -188 -167 -273t-173 -85q-71 0 -111 45t-45 129h-16q-61 -96 -137.5 -143.5t-169.5 -47.5q-168 0 -262 105.5t-94 294.5q0 151 47.5 288t138.5 246q78 93 172.5 142t198.5 49q92 0 152.5 -47t86.5 -138h19l37 152h192zM979 1202h-80l-168 178 l-246 -178h-102l305 348h127z" />
<glyph unicode="&#xe3;" horiz-adv-x="1270" d="M731 778q0 115 -36 174.5t-105 59.5q-52 0 -98 -39t-82 -113q-56 -113 -89.5 -267.5t-33.5 -303.5q0 -111 37 -170.5t106 -59.5q61 0 111 49.5t90 149.5q47 117 73.5 255.5t26.5 264.5zM897 262q-9 -41 -12.5 -65.5t-3.5 -42.5q0 -26 8 -41t22 -15q41 0 91 65.5 t124 215.5l74 -33q-86 -188 -167 -273t-173 -85q-71 0 -111 45t-45 129h-16q-61 -96 -137.5 -143.5t-169.5 -47.5q-168 0 -262 105.5t-94 294.5q0 151 47.5 288t138.5 246q78 93 172.5 142t198.5 49q92 0 152.5 -47t86.5 -138h19l37 152h192zM1014 1507q-21 -115 -72 -175 t-127 -60q-15 0 -49 7q-5 1 -6 1l-107 27q-13 4 -25.5 6t-23.5 2q-39 0 -62.5 -21.5t-37.5 -70.5h-66q18 115 70.5 178t128.5 63q16 0 31 -2t28 -6l89 -22q24 -6 38 -8.5t23 -2.5q43 0 67.5 20t34.5 64h66z" />
<glyph unicode="&#xe4;" horiz-adv-x="1270" d="M731 778q0 115 -36 174.5t-105 59.5q-52 0 -98 -39t-82 -113q-56 -113 -89.5 -267.5t-33.5 -303.5q0 -111 37 -170.5t106 -59.5q61 0 111 49.5t90 149.5q47 117 73.5 255.5t26.5 264.5zM897 262q-9 -41 -12.5 -65.5t-3.5 -42.5q0 -26 8 -41t22 -15q41 0 91 65.5 t124 215.5l74 -33q-86 -188 -167 -273t-173 -85q-71 0 -111 45t-45 129h-16q-61 -96 -137.5 -143.5t-169.5 -47.5q-168 0 -262 105.5t-94 294.5q0 151 47.5 288t138.5 246q78 93 172.5 142t198.5 49q92 0 152.5 -47t86.5 -138h19l37 152h192zM789 1366q0 46 36 82.5t82 36.5 q49 0 85 -35.5t36 -83.5q0 -53 -34 -88t-87 -35q-49 0 -83.5 35.5t-34.5 87.5zM426 1366q0 46 36.5 82.5t82.5 36.5q49 0 85 -35.5t36 -83.5q0 -53 -34.5 -88t-86.5 -35q-50 0 -84.5 35.5t-34.5 87.5z" />
<glyph unicode="&#xe5;" horiz-adv-x="1270" d="M569 1421q0 -59 41.5 -100t102.5 -41q58 0 98.5 41t40.5 100q0 60 -40.5 102t-98.5 42q-60 0 -102 -42t-42 -102zM459 1423q0 106 73 179t179 73t180 -73t74 -179q0 -107 -73.5 -180.5t-180.5 -73.5q-106 0 -179 73.5t-73 180.5zM731 778q0 115 -36 174.5t-105 59.5 q-52 0 -98 -39t-82 -113q-56 -113 -89.5 -267.5t-33.5 -303.5q0 -111 37 -170.5t106 -59.5q61 0 111 49.5t90 149.5q47 117 73.5 255.5t26.5 264.5zM897 262q-9 -41 -12.5 -65.5t-3.5 -42.5q0 -26 8 -41t22 -15q41 0 91 65.5t124 215.5l74 -33q-86 -188 -167 -273t-173 -85 q-71 0 -111 45t-45 129h-16q-60 -94 -136 -140.5t-171 -46.5q-169 0 -262.5 104t-93.5 292q0 151 47.5 288t138.5 246q78 93 172.5 142t198.5 49q92 0 152.5 -47t86.5 -138h19l37 152h192z" />
<glyph unicode="&#xe6;" horiz-adv-x="1561" d="M627 524q-205 -15 -309.5 -88t-104.5 -200q0 -70 31 -107t90 -37q122 0 195 108.5t98 323.5zM840 934q76 78 165 117t191 39q129 0 205 -57.5t76 -151.5q0 -155 -172.5 -278.5t-452.5 -162.5q0 -12 -1 -36t-1 -33q0 -164 41.5 -234.5t136.5 -70.5q72 0 145 52t162 167 l62 -43q-98 -140 -201.5 -205.5t-226.5 -65.5q-113 0 -198.5 53.5t-135.5 155.5q-76 -103 -171.5 -155t-211.5 -52q-132 0 -209.5 68t-77.5 182q0 169 158 259.5t504 117.5q8 72 12 119t4 80q0 104 -44.5 159.5t-127.5 55.5q-49 0 -76.5 -15.5t-27.5 -42.5q0 -6 19.5 -45.5 t19.5 -72.5q0 -56 -39 -89.5t-105 -33.5q-67 0 -107 38t-40 103q0 110 99 174t271 64q129 0 218.5 -40.5t136.5 -119.5zM860 524q185 28 294.5 129.5t109.5 241.5q0 54 -32.5 88.5t-82.5 34.5q-101 0 -173.5 -124t-115.5 -370z" />
<glyph unicode="&#xe7;" horiz-adv-x="985" d="M768 322l68 -50q-77 -152 -182 -227.5t-240 -75.5q-191 0 -297.5 111.5t-106.5 310.5q0 149 55 291t152 244q76 80 174 123t207 43q144 0 227.5 -66.5t83.5 -179.5q0 -74 -44 -119t-117 -45q-64 0 -104 34.5t-40 88.5q0 49 43 97.5t43 62.5q0 18 -16 29.5t-43 11.5 q-62 0 -116.5 -39t-96.5 -113q-63 -109 -96 -237t-33 -263q0 -147 42 -220t128 -73q74 0 150.5 64.5t158.5 196.5zM111 -375l41 90q76 -41 132 -58t107 -17q48 0 72.5 22t24.5 66q0 39 -26.5 60.5t-76.5 21.5q-18 0 -80 -13l-10 -2l66 205h69l-34 -112q16 2 32.5 3.5 t32.5 2.5q86 0 136 -46t50 -124q0 -85 -61 -133t-168 -48q-57 0 -129 19t-178 63z" />
<glyph unicode="&#xe8;" horiz-adv-x="1006" d="M301 498q195 55 300.5 158.5t105.5 238.5q0 54 -32.5 88.5t-82.5 34.5q-103 0 -175.5 -130t-115.5 -390zM301 423q-1 -13 -1.5 -28.5t-0.5 -44.5q0 -152 41 -218t133 -66q72 0 146.5 52.5t162.5 166.5l62 -43q-98 -142 -202 -206.5t-234 -64.5q-184 0 -289 114t-105 314 q0 155 61.5 290.5t178.5 240.5q88 77 188 118.5t201 41.5q127 0 203 -57.5t76 -151.5q0 -151 -164.5 -272.5t-456.5 -185.5zM819 1202h-105l-260 191q-36 27 -49.5 45.5t-13.5 38.5q0 37 24 62.5t60 25.5q26 0 49 -14.5t49 -47.5z" />
<glyph unicode="&#xe9;" horiz-adv-x="1006" d="M301 498q195 55 300.5 158.5t105.5 238.5q0 54 -32.5 88.5t-82.5 34.5q-103 0 -175.5 -130t-115.5 -390zM301 423q-1 -13 -1.5 -28.5t-0.5 -44.5q0 -152 41 -218t133 -66q72 0 146.5 52.5t162.5 166.5l62 -43q-98 -142 -202 -206.5t-234 -64.5q-184 0 -289 114t-105 314 q0 155 61.5 290.5t178.5 240.5q88 77 188 118.5t201 41.5q127 0 203 -57.5t76 -151.5q0 -151 -164.5 -272.5t-456.5 -185.5zM557 1202h-105l307 303q30 29 59 43.5t56 14.5q33 0 56.5 -25.5t23.5 -60.5q0 -28 -16.5 -50t-51.5 -41z" />
<glyph unicode="&#xea;" horiz-adv-x="1006" d="M301 498q195 55 300.5 158.5t105.5 238.5q0 54 -32.5 88.5t-82.5 34.5q-103 0 -175.5 -130t-115.5 -390zM301 423q-1 -13 -1.5 -28.5t-0.5 -44.5q0 -152 41 -218t133 -66q72 0 146.5 52.5t162.5 166.5l62 -43q-98 -142 -202 -206.5t-234 -64.5q-184 0 -289 114t-105 314 q0 155 61.5 290.5t178.5 240.5q88 77 188 118.5t201 41.5q127 0 203 -57.5t76 -151.5q0 -151 -164.5 -272.5t-456.5 -185.5zM917 1202h-80l-168 178l-246 -178h-102l305 348h127z" />
<glyph unicode="&#xeb;" horiz-adv-x="1006" d="M301 498q195 55 300.5 158.5t105.5 238.5q0 54 -32.5 88.5t-82.5 34.5q-103 0 -175.5 -130t-115.5 -390zM301 423q-1 -13 -1.5 -28.5t-0.5 -44.5q0 -152 41 -218t133 -66q72 0 146.5 52.5t162.5 166.5l62 -43q-98 -142 -202 -206.5t-234 -64.5q-184 0 -289 114t-105 314 q0 155 61.5 290.5t178.5 240.5q88 77 188 118.5t201 41.5q127 0 203 -57.5t76 -151.5q0 -151 -164.5 -272.5t-456.5 -185.5zM727 1366q0 46 36 82.5t82 36.5q49 0 85 -35.5t36 -83.5q0 -53 -34 -88t-87 -35q-49 0 -83.5 35.5t-34.5 87.5zM364 1366q0 46 36.5 82.5t82.5 36.5 q49 0 85 -35.5t36 -83.5q0 -53 -34.5 -88t-86.5 -35q-50 0 -84.5 35.5t-34.5 87.5z" />
<glyph unicode="&#xec;" horiz-adv-x="754" d="M635 332q-87 -196 -164.5 -278.5t-173.5 -82.5q-87 0 -141 55.5t-54 143.5q0 110 97 398q15 43 22 65l23 67q63 184 63 232q0 20 -10.5 34.5t-26.5 14.5q-44 0 -100.5 -79t-116.5 -224l-73 29q80 205 163 296t187 91q92 0 144 -56t52 -155q0 -90 -82 -323 q-14 -42 -22 -64q-8 -25 -24 -70q-79 -229 -79 -276q0 -27 12 -43.5t29 -16.5q37 0 84.5 65t114.5 210zM576 1202h-105l-260 191q-36 27 -49.5 45.5t-13.5 38.5q0 37 24 62.5t60 25.5q26 0 49 -14.5t49 -47.5z" />
<glyph unicode="&#xed;" horiz-adv-x="754" d="M635 332q-87 -196 -164.5 -278.5t-173.5 -82.5q-87 0 -141 55.5t-54 143.5q0 110 97 398q15 43 22 65l23 67q63 184 63 232q0 20 -10.5 34.5t-26.5 14.5q-44 0 -100.5 -79t-116.5 -224l-73 29q80 205 163 296t187 91q92 0 144 -56t52 -155q0 -90 -82 -323 q-14 -42 -22 -64q-8 -25 -24 -70q-79 -229 -79 -276q0 -27 12 -43.5t29 -16.5q37 0 84.5 65t114.5 210zM314 1202h-105l307 303q30 29 59 43.5t56 14.5q33 0 56.5 -25.5t23.5 -60.5q0 -28 -16.5 -50t-51.5 -41z" />
<glyph unicode="&#xee;" horiz-adv-x="754" d="M635 332q-87 -196 -164.5 -278.5t-173.5 -82.5q-87 0 -141 55.5t-54 143.5q0 110 97 398q15 43 22 65l23 67q63 184 63 232q0 20 -10.5 34.5t-26.5 14.5q-44 0 -100.5 -79t-116.5 -224l-73 29q80 205 163 296t187 91q92 0 144 -56t52 -155q0 -90 -82 -323 q-14 -42 -22 -64q-8 -25 -24 -70q-79 -229 -79 -276q0 -27 12 -43.5t29 -16.5q37 0 84.5 65t114.5 210zM674 1202h-80l-168 178l-246 -178h-102l305 348h127z" />
<glyph unicode="&#xef;" horiz-adv-x="754" d="M635 332q-87 -196 -164.5 -278.5t-173.5 -82.5q-87 0 -141 55.5t-54 143.5q0 110 97 398q15 43 22 65l23 67q63 184 63 232q0 20 -10.5 34.5t-26.5 14.5q-44 0 -100.5 -79t-116.5 -224l-73 29q80 205 163 296t187 91q92 0 144 -56t52 -155q0 -90 -82 -323 q-14 -42 -22 -64q-8 -25 -24 -70q-79 -229 -79 -276q0 -27 12 -43.5t29 -16.5q37 0 84.5 65t114.5 210zM484 1366q0 46 36 82.5t82 36.5q49 0 85 -35.5t36 -83.5q0 -53 -34 -88t-87 -35q-49 0 -83.5 35.5t-34.5 87.5zM121 1366q0 46 36.5 82.5t82.5 36.5q49 0 85 -35.5 t36 -83.5q0 -53 -34.5 -88t-86.5 -35q-50 0 -84.5 35.5t-34.5 87.5z" />
<glyph unicode="&#xf0;" horiz-adv-x="1073" d="M276 227q0 -85 36.5 -128.5t107.5 -43.5q50 0 90 34t68 99q25 58 46 139.5t42 200.5q14 82 21 160.5t7 151.5q0 85 -35 128.5t-104 43.5q-50 0 -90 -34t-70 -101q-23 -52 -41.5 -125.5t-40.5 -198.5q-19 -113 -28 -190.5t-9 -135.5zM663 1067q-9 35 -21 75l-38 118 l-297 -86l-24 71l292 84q-23 56 -47 108t-49 99l82 29l79 -99l73 -98l288 84l23 -74l-270 -78q100 -158 150 -315.5t50 -312.5q0 -320 -143 -511.5t-379 -191.5q-198 0 -302.5 125t-104.5 363q0 139 42.5 260t122.5 211q69 78 161.5 122t185.5 44q30 0 62.5 -7t63.5 -20z " />
<glyph unicode="&#xf1;" horiz-adv-x="1352" d="M455 692q92 204 194.5 302t222.5 98q112 0 173 -65.5t61 -184.5q0 -68 -22 -163.5t-83 -277.5l-18 -58q-51 -155 -51 -189q0 -24 10.5 -39t28.5 -15q39 0 92.5 70.5t120.5 208.5l76 -33q-89 -192 -169 -274t-176 -82q-88 0 -140 56.5t-52 152.5q0 68 21.5 168t72.5 268 l31 98q49 153 49 199q0 33 -17 52.5t-46 19.5q-113 0 -234 -213t-188 -549l-50 -242h-249l123 602q23 114 37 206.5t14 125.5q0 24 -9.5 38.5t-25.5 14.5q-35 0 -78 -61.5t-131 -245.5l-74 35q94 214 165.5 295.5t156.5 81.5t129.5 -55.5t44.5 -162.5q0 -37 -5 -79t-16 -90z M1055 1507q-21 -115 -72 -175t-127 -60q-15 0 -49 7q-5 1 -6 1l-107 27q-13 4 -25.5 6t-23.5 2q-39 0 -62.5 -21.5t-37.5 -70.5h-66q18 115 70.5 178t128.5 63q16 0 31 -2t28 -6l89 -22q24 -6 38 -8.5t23 -2.5q43 0 67.5 20t34.5 64h66z" />
<glyph unicode="&#xf2;" horiz-adv-x="1073" d="M276 227q0 -85 36.5 -128.5t107.5 -43.5q50 0 90 34t68 99q25 58 46 139.5t42 200.5q14 82 21 160.5t7 151.5q0 85 -35 128.5t-104 43.5q-50 0 -90 -34t-70 -101q-23 -52 -41.5 -125.5t-40.5 -198.5q-19 -113 -28 -190.5t-9 -135.5zM434 -31q-199 0 -304 125.5 t-105 362.5q0 273 149.5 455t370.5 182q196 0 302.5 -119.5t106.5 -339.5q0 -293 -146 -479.5t-374 -186.5zM783 1202h-105l-260 191q-36 27 -49.5 45.5t-13.5 38.5q0 37 24 62.5t60 25.5q26 0 49 -14.5t49 -47.5z" />
<glyph unicode="&#xf3;" horiz-adv-x="1073" d="M276 227q0 -85 36.5 -128.5t107.5 -43.5q50 0 90 34t68 99q25 58 46 139.5t42 200.5q14 82 21 160.5t7 151.5q0 85 -35 128.5t-104 43.5q-50 0 -90 -34t-70 -101q-23 -52 -41.5 -125.5t-40.5 -198.5q-19 -113 -28 -190.5t-9 -135.5zM434 -31q-199 0 -304 125.5 t-105 362.5q0 273 149.5 455t370.5 182q196 0 302.5 -119.5t106.5 -339.5q0 -293 -146 -479.5t-374 -186.5zM521 1202h-105l307 303q30 29 59 43.5t56 14.5q33 0 56.5 -25.5t23.5 -60.5q0 -28 -16.5 -50t-51.5 -41z" />
<glyph unicode="&#xf4;" horiz-adv-x="1073" d="M276 227q0 -85 36.5 -128.5t107.5 -43.5q50 0 90 34t68 99q25 58 46 139.5t42 200.5q14 82 21 160.5t7 151.5q0 85 -35 128.5t-104 43.5q-50 0 -90 -34t-70 -101q-23 -52 -41.5 -125.5t-40.5 -198.5q-19 -113 -28 -190.5t-9 -135.5zM434 -31q-199 0 -304 125.5 t-105 362.5q0 273 149.5 455t370.5 182q196 0 302.5 -119.5t106.5 -339.5q0 -293 -146 -479.5t-374 -186.5zM881 1202h-80l-168 178l-246 -178h-102l305 348h127z" />
<glyph unicode="&#xf5;" horiz-adv-x="1073" d="M276 227q0 -85 36.5 -128.5t107.5 -43.5q50 0 90 34t68 99q25 58 46 139.5t42 200.5q14 82 21 160.5t7 151.5q0 85 -35 128.5t-104 43.5q-50 0 -90 -34t-70 -101q-23 -52 -41.5 -125.5t-40.5 -198.5q-19 -113 -28 -190.5t-9 -135.5zM434 -31q-199 0 -304 125.5 t-105 362.5q0 273 149.5 455t370.5 182q196 0 302.5 -119.5t106.5 -339.5q0 -293 -146 -479.5t-374 -186.5zM916 1507q-21 -115 -72 -175t-127 -60q-15 0 -49 7q-5 1 -6 1l-107 27q-13 4 -25.5 6t-23.5 2q-39 0 -62.5 -21.5t-37.5 -70.5h-66q18 115 70.5 178t128.5 63 q16 0 31 -2t28 -6l89 -22q24 -6 38 -8.5t23 -2.5q43 0 67.5 20t34.5 64h66z" />
<glyph unicode="&#xf6;" horiz-adv-x="1073" d="M276 227q0 -85 36.5 -128.5t107.5 -43.5q50 0 90 34t68 99q25 58 46 139.5t42 200.5q14 82 21 160.5t7 151.5q0 85 -35 128.5t-104 43.5q-50 0 -90 -34t-70 -101q-23 -52 -41.5 -125.5t-40.5 -198.5q-19 -113 -28 -190.5t-9 -135.5zM434 -31q-199 0 -304 125.5 t-105 362.5q0 273 149.5 455t370.5 182q196 0 302.5 -119.5t106.5 -339.5q0 -293 -146 -479.5t-374 -186.5zM691 1366q0 46 36 82.5t82 36.5q49 0 85 -35.5t36 -83.5q0 -53 -34 -88t-87 -35q-49 0 -83.5 35.5t-34.5 87.5zM328 1366q0 46 36.5 82.5t82.5 36.5q49 0 85 -35.5 t36 -83.5q0 -53 -34.5 -88t-86.5 -35q-50 0 -84.5 35.5t-34.5 87.5z" />
<glyph unicode="&#xf7;" horiz-adv-x="1706" d="M854 371q68 0 116 -48.5t48 -117.5q0 -68 -47.5 -116t-116.5 -48t-117.5 48t-48.5 116t49 117t117 49zM254 727h1198v-231h-1198v231zM854 1182q67 0 115.5 -49t48.5 -117t-48.5 -116t-117.5 -48t-116.5 48t-47.5 116t49 117t117 49z" />
<glyph unicode="&#xf8;" horiz-adv-x="1073" d="M705 836l-406 -732q26 -28 56 -41.5t71 -13.5q125 0 195 197.5t84 589.5zM268 229l408 734q-18 28 -48 41.5t-75 13.5q-124 0 -189.5 -179.5t-95.5 -609.5zM172 53q-74 63 -110.5 164t-36.5 240q0 273 149.5 455t370.5 182q46 0 92 -9t92 -26l135 241h97l-160 -286 q76 -59 114.5 -155t38.5 -224q0 -295 -147 -480.5t-377 -185.5q-50 0 -95.5 9t-88.5 28l-150 -266h-96z" />
<glyph unicode="&#xf9;" horiz-adv-x="1352" d="M782 369q-92 -204 -194.5 -302t-222.5 -98q-111 0 -173.5 67.5t-62.5 186.5q0 108 90 362l27 77q31 91 49 167.5t18 106.5q0 21 -10 35t-24 14q-39 0 -92.5 -70.5t-120.5 -209.5l-74 34q89 194 168 275.5t174 81.5q88 0 138 -55.5t50 -151.5q0 -99 -83 -361l-11 -34 q-6 -20 -18 -56q-70 -221 -70 -291q0 -47 15 -68.5t48 -21.5q112 0 233 213t189 549l49 244h250l-123 -604q-23 -120 -37 -210t-14 -126q0 -21 10 -35t25 -14q35 0 77.5 60.5t131.5 248.5l74 -35q-95 -215 -166 -297t-156 -82t-129.5 55.5t-44.5 161.5q0 38 5 81t16 91z M938 1202h-105l-260 191q-36 27 -49.5 45.5t-13.5 38.5q0 37 24 62.5t60 25.5q26 0 49 -14.5t49 -47.5z" />
<glyph unicode="&#xfa;" horiz-adv-x="1352" d="M782 369q-92 -204 -194.5 -302t-222.5 -98q-111 0 -173.5 67.5t-62.5 186.5q0 108 90 362l27 77q31 91 49 167.5t18 106.5q0 21 -10 35t-24 14q-39 0 -92.5 -70.5t-120.5 -209.5l-74 34q89 194 168 275.5t174 81.5q88 0 138 -55.5t50 -151.5q0 -99 -83 -361l-11 -34 q-6 -20 -18 -56q-70 -221 -70 -291q0 -47 15 -68.5t48 -21.5q112 0 233 213t189 549l49 244h250l-123 -604q-23 -120 -37 -210t-14 -126q0 -21 10 -35t25 -14q35 0 77.5 60.5t131.5 248.5l74 -35q-95 -215 -166 -297t-156 -82t-129.5 55.5t-44.5 161.5q0 38 5 81t16 91z M676 1202h-105l307 303q30 29 59 43.5t56 14.5q33 0 56.5 -25.5t23.5 -60.5q0 -28 -16.5 -50t-51.5 -41z" />
<glyph unicode="&#xfb;" horiz-adv-x="1352" d="M782 369q-92 -204 -194.5 -302t-222.5 -98q-111 0 -173.5 67.5t-62.5 186.5q0 108 90 362l27 77q31 91 49 167.5t18 106.5q0 21 -10 35t-24 14q-39 0 -92.5 -70.5t-120.5 -209.5l-74 34q89 194 168 275.5t174 81.5q88 0 138 -55.5t50 -151.5q0 -99 -83 -361l-11 -34 q-6 -20 -18 -56q-70 -221 -70 -291q0 -47 15 -68.5t48 -21.5q112 0 233 213t189 549l49 244h250l-123 -604q-23 -120 -37 -210t-14 -126q0 -21 10 -35t25 -14q35 0 77.5 60.5t131.5 248.5l74 -35q-95 -215 -166 -297t-156 -82t-129.5 55.5t-44.5 161.5q0 38 5 81t16 91z M1036 1202h-80l-168 178l-246 -178h-102l305 348h127z" />
<glyph unicode="&#xfc;" horiz-adv-x="1352" d="M782 369q-92 -204 -194.5 -302t-222.5 -98q-111 0 -173.5 67.5t-62.5 186.5q0 108 90 362l27 77q31 91 49 167.5t18 106.5q0 21 -10 35t-24 14q-39 0 -92.5 -70.5t-120.5 -209.5l-74 34q89 194 168 275.5t174 81.5q88 0 138 -55.5t50 -151.5q0 -99 -83 -361l-11 -34 q-6 -20 -18 -56q-70 -221 -70 -291q0 -47 15 -68.5t48 -21.5q112 0 233 213t189 549l49 244h250l-123 -604q-23 -120 -37 -210t-14 -126q0 -21 10 -35t25 -14q35 0 77.5 60.5t131.5 248.5l74 -35q-95 -215 -166 -297t-156 -82t-129.5 55.5t-44.5 161.5q0 38 5 81t16 91z M846 1366q0 46 36 82.5t82 36.5q49 0 85 -35.5t36 -83.5q0 -53 -34 -88t-87 -35q-49 0 -83.5 35.5t-34.5 87.5zM483 1366q0 46 36.5 82.5t82.5 36.5q49 0 85 -35.5t36 -83.5q0 -53 -34.5 -88t-86.5 -35q-50 0 -84.5 35.5t-34.5 87.5z" />
<glyph unicode="&#xfd;" horiz-adv-x="1214" d="M1120 1063l-162 -816l-9 -46q-62 -313 -154 -422q-77 -91 -188 -138t-251 -47q-141 0 -220 50t-79 139q0 61 39 101t99 40q53 0 86.5 -30.5t33.5 -77.5q0 -9 -4 -34.5t-4 -43.5q0 -23 26 -38t66 -15q145 0 223 132t117 453h-14q-83 -139 -171 -205.5t-189 -66.5 q-112 0 -174 65t-62 183q0 102 88 346l29 82q31 88 49 163t18 105q0 18 -10 31.5t-24 13.5q-39 0 -92.5 -69t-123.5 -207l-69 32q77 184 159.5 268.5t182.5 84.5q88 0 137 -54.5t49 -152.5q0 -89 -79 -331l-15 -46q-6 -17 -16 -51q-72 -222 -72 -291q0 -45 15 -65.5 t48 -20.5q45 0 104 42t109 112q68 92 114.5 218.5t94.5 370.5l47 236h248zM592 1202h-105l307 303q30 29 59 43.5t56 14.5q33 0 56.5 -25.5t23.5 -60.5q0 -28 -16.5 -50t-51.5 -41z" />
<glyph unicode="&#xfe;" horiz-adv-x="1274" d="M336 1139q15 87 22 132.5t7 63.5q0 57 -37.5 79t-139.5 22h-18l18 88q133 0 247.5 7t215.5 21l-100 -561l10 -4q49 52 104.5 76t125.5 24q161 0 261.5 -127t100.5 -335q0 -139 -46 -264t-130 -218q-68 -74 -156.5 -113.5t-185.5 -39.5q-78 0 -134.5 25.5t-88.5 74.5 l-17 -2l-43 -250q-3 -21 -4.5 -35t-1.5 -22q0 -49 36.5 -68.5t141.5 -22.5l-16 -89h-596l14 90q7 0 17 -1t14 -1q73 0 105 35t55 165zM885 735q0 123 -37 184.5t-111 61.5q-52 0 -99.5 -37.5t-82.5 -107.5q-50 -102 -79.5 -238.5t-29.5 -273.5q0 -117 38.5 -177.5 t113.5 -60.5q50 0 94 31t76 88q52 96 84.5 240.5t32.5 289.5z" />
<glyph unicode="&#xff;" horiz-adv-x="1214" d="M1120 1063l-162 -816l-9 -46q-62 -313 -154 -422q-77 -91 -188 -138t-251 -47q-141 0 -220 50t-79 139q0 61 39 101t99 40q53 0 86.5 -30.5t33.5 -77.5q0 -9 -4 -34.5t-4 -43.5q0 -23 26 -38t66 -15q145 0 223 132t117 453h-14q-83 -139 -171 -205.5t-189 -66.5 q-112 0 -174 65t-62 183q0 102 88 346l29 82q31 88 49 163t18 105q0 18 -10 31.5t-24 13.5q-39 0 -92.5 -69t-123.5 -207l-69 32q77 184 159.5 268.5t182.5 84.5q88 0 137 -54.5t49 -152.5q0 -89 -79 -331l-15 -46q-6 -17 -16 -51q-72 -222 -72 -291q0 -45 15 -65.5 t48 -20.5q45 0 104 42t109 112q68 92 114.5 218.5t94.5 370.5l47 236h248zM762 1366q0 46 36 82.5t82 36.5q49 0 85 -35.5t36 -83.5q0 -53 -34 -88t-87 -35q-49 0 -83.5 35.5t-34.5 87.5zM399 1366q0 46 36.5 82.5t82.5 36.5q49 0 85 -35.5t36 -83.5q0 -53 -34.5 -88 t-86.5 -35q-50 0 -84.5 35.5t-34.5 87.5z" />
<glyph unicode="&#x131;" horiz-adv-x="754" d="M635 332q-87 -196 -164.5 -278.5t-173.5 -82.5q-87 0 -141 55.5t-54 143.5q0 110 97 398q15 43 22 65l23 67q63 184 63 232q0 20 -10.5 34.5t-26.5 14.5q-44 0 -100.5 -79t-116.5 -224l-73 29q80 205 163 296t187 91q92 0 144 -56t52 -155q0 -90 -82 -323 q-14 -42 -22 -64q-8 -25 -24 -70q-79 -229 -79 -276q0 -27 12 -43.5t29 -16.5q37 0 84.5 65t114.5 210z" />
<glyph unicode="&#x152;" horiz-adv-x="2441" d="M1051 317l151 852q4 24 6 49.5t2 55.5q0 68 -45 101.5t-135 33.5q-101 0 -206.5 -55t-178.5 -148q-91 -116 -140.5 -297.5t-49.5 -396.5q0 -213 78.5 -318.5t238.5 -105.5q143 0 197.5 43t81.5 186zM2372 1489l-54 -490l-98 7q-2 218 -69.5 303.5t-237.5 85.5h-107 q-127 0 -174 -42.5t-71 -181.5l-60 -335h53q115 0 176.5 54t104.5 195h92q-31 -133 -59.5 -280t-65.5 -373l-96 4q6 35 9 67t3 58q0 94 -39.5 136t-128.5 42h-65l-74 -420q-1 -7 -4 -23q-10 -65 -10 -79q0 -68 46 -95.5t169 -27.5h94q162 0 275 94.5t196 300.5l107 -4 l-109 -485h-657q-312 0 -607 -16q-46 -2 -55 -2q-387 0 -580.5 167t-193.5 502q0 205 86 377.5t250 294.5q122 91 279.5 135.5t355.5 44.5q9 0 55 -2q264 -12 530 -12h734z" />
<glyph unicode="&#x153;" horiz-adv-x="1608" d="M743 88q-67 -60 -144.5 -89.5t-168.5 -29.5q-197 0 -301 125.5t-104 362.5q0 274 149.5 455.5t370.5 181.5q116 0 197.5 -40t138.5 -124q87 79 181.5 119.5t194.5 40.5q123 0 196 -57.5t73 -151.5q0 -151 -159.5 -272.5t-442.5 -184.5q-1 -12 -1.5 -26.5t-0.5 -41.5 q0 -147 39.5 -218.5t119.5 -71.5q71 0 147 54t161 165l61 -43q-97 -139 -201.5 -205t-228.5 -66q-81 0 -152 30t-125 87zM924 498q189 55 292 158.5t103 238.5q0 55 -31.5 89t-81.5 34q-100 0 -171.5 -131.5t-110.5 -388.5zM709 840q0 88 -36.5 130t-113.5 42 q-52 0 -93.5 -34t-70.5 -101q-23 -52 -41.5 -125.5t-40.5 -198.5q-19 -115 -28 -192.5t-9 -133.5q0 -87 37.5 -130.5t112.5 -43.5q54 0 96 34t70 99q24 57 45 139.5t41 202.5q15 97 23 175t8 137z" />
<glyph unicode="&#x178;" horiz-adv-x="1346" d="M229 1178l-6 11q-112 206 -239 206h-4l16 94h741l-16 -94q-108 -4 -144 -27t-36 -82q0 -26 10.5 -60.5t30.5 -70.5l225 -407l256 393q20 32 32.5 71.5t12.5 71.5q0 61 -39 85t-143 26l16 94h553l-16 -94q-78 -6 -133 -44.5t-134 -162.5l-340 -529l-59 -340 q-5 -34 -7.5 -55t-2.5 -35q0 -76 45.5 -105.5t167.5 -29.5l-17 -94h-821l17 94q6 0 18 -1t18 -1q102 0 149 47t71 178l59 345zM904 1794q0 46 36 82.5t82 36.5q49 0 85 -35.5t36 -83.5q0 -53 -34 -88t-87 -35q-49 0 -83.5 35.5t-34.5 87.5zM541 1794q0 46 36.5 82.5 t82.5 36.5q49 0 85 -35.5t36 -83.5q0 -53 -34.5 -88t-86.5 -35q-50 0 -84.5 35.5t-34.5 87.5z" />
<glyph unicode="&#x2c6;" d="M856 1202h-80l-168 178l-246 -178h-102l305 348h127z" />
<glyph unicode="&#x2dc;" d="M891 1507q-21 -115 -72 -175t-127 -60q-15 0 -49 7q-5 1 -6 1l-107 27q-13 4 -25.5 6t-23.5 2q-39 0 -62.5 -21.5t-37.5 -70.5h-66q18 115 70.5 178t128.5 63q16 0 31 -2t28 -6l89 -22q24 -6 38 -8.5t23 -2.5q43 0 67.5 20t34.5 64h66z" />
<glyph unicode="&#x2000;" horiz-adv-x="996" />
<glyph unicode="&#x2001;" horiz-adv-x="1993" />
<glyph unicode="&#x2002;" horiz-adv-x="996" />
<glyph unicode="&#x2003;" horiz-adv-x="1993" />
<glyph unicode="&#x2004;" horiz-adv-x="664" />
<glyph unicode="&#x2005;" horiz-adv-x="498" />
<glyph unicode="&#x2006;" horiz-adv-x="332" />
<glyph unicode="&#x2007;" horiz-adv-x="332" />
<glyph unicode="&#x2008;" horiz-adv-x="249" />
<glyph unicode="&#x2009;" horiz-adv-x="398" />
<glyph unicode="&#x200a;" horiz-adv-x="110" />
<glyph unicode="&#x2010;" horiz-adv-x="692" d="M63 657h512l-38 -227h-512z" />
<glyph unicode="&#x2011;" horiz-adv-x="692" d="M63 657h512l-38 -227h-512z" />
<glyph unicode="&#x2012;" horiz-adv-x="692" d="M63 657h512l-38 -227h-512z" />
<glyph unicode="&#x2013;" d="M-47 621h1024v-156h-1024v156z" />
<glyph unicode="&#x2014;" horiz-adv-x="2048" d="M-47 621h2048v-156h-2048v156z" />
<glyph unicode="&#x2018;" horiz-adv-x="569" d="M555 1446q-134 -47 -203 -106t-69 -126q0 -23 11.5 -33t41.5 -10q3 0 8 1.5t8 1.5q54 0 88.5 -37t34.5 -95q0 -62 -44 -103.5t-109 -41.5q-77 0 -121.5 55.5t-44.5 151.5q0 145 95 250.5t279 165.5z" />
<glyph unicode="&#x2019;" horiz-adv-x="569" d="M135 969q132 46 202.5 105t70.5 122q0 28 -11 37.5t-43 9.5h-16q-54 0 -88.5 37t-34.5 94q0 61 43.5 103.5t103.5 42.5q82 0 127.5 -54.5t45.5 -152.5q0 -146 -95.5 -251t-279.5 -165z" />
<glyph unicode="&#x201a;" horiz-adv-x="569" d="M-53 -301q129 46 199.5 105t70.5 122q0 29 -11 38t-42 9h-17q-53 0 -87.5 37t-34.5 94q0 61 43 103.5t104 42.5q81 0 126.5 -55t45.5 -154q0 -145 -95 -249.5t-280 -164.5z" />
<glyph unicode="&#x201c;" horiz-adv-x="1081" d="M1071 1446q-134 -47 -203 -106t-69 -126q0 -23 11.5 -33t41.5 -10q3 0 8 1.5t8 1.5q54 0 88.5 -37t34.5 -95q0 -62 -43 -103.5t-108 -41.5q-77 0 -121.5 55.5t-44.5 151.5q0 145 95 250.5t280 165.5zM549 1446q-133 -47 -201.5 -105.5t-68.5 -126.5q0 -23 11.5 -33 t41.5 -10q3 0 8 1.5t8 1.5q54 0 88.5 -37t34.5 -95q0 -62 -44 -103.5t-110 -41.5q-76 0 -120.5 55.5t-44.5 151.5q0 145 95 250.5t279 165.5z" />
<glyph unicode="&#x201d;" horiz-adv-x="1081" d="M653 969q131 46 201 104.5t70 122.5q0 28 -11 37.5t-43 9.5h-16q-54 0 -88.5 37t-34.5 94q0 61 43.5 103.5t104.5 42.5q81 0 126.5 -54.5t45.5 -152.5q0 -146 -95.5 -251t-279.5 -165zM131 969q132 46 202 105t70 122q0 28 -10.5 37.5t-42.5 9.5h-16q-54 0 -88.5 37 t-34.5 94q0 61 43.5 103.5t103.5 42.5q81 0 125.5 -54.5t44.5 -152.5q0 -146 -95 -251t-279 -165z" />
<glyph unicode="&#x201e;" horiz-adv-x="1081" d="M467 -301q130 46 201 105.5t71 121.5q0 29 -10.5 38t-42.5 9h-16q-54 0 -88.5 37t-34.5 94q0 61 43 103.5t104 42.5q81 0 125.5 -55t44.5 -154q0 -145 -94.5 -249.5t-280.5 -164.5zM-57 -301q129 46 199.5 105t70.5 122q0 29 -11 38t-42 9h-17q-53 0 -88 37t-35 94 q0 61 43.5 103.5t104.5 42.5q81 0 126.5 -55t45.5 -154q0 -145 -95 -249.5t-280 -164.5z" />
<glyph unicode="&#x2022;" horiz-adv-x="1208" d="M307 762q0 123 87 209t210 86q122 0 208.5 -86.5t86.5 -208.5t-87.5 -209.5t-209.5 -87.5q-123 0 -209 87t-86 210z" />
<glyph unicode="&#x2026;" horiz-adv-x="2048" d="M120 127q0 61 43.5 104t104.5 43q62 0 105.5 -43t43.5 -104q0 -63 -43 -106.5t-106 -43.5t-105.5 43.5t-42.5 106.5zM802 127q0 61 43.5 104t104.5 43q62 0 105.5 -43t43.5 -104q0 -63 -43 -106.5t-106 -43.5t-105.5 43.5t-42.5 106.5zM1486 127q0 61 43.5 104t104.5 43 q62 0 105.5 -43t43.5 -104q0 -63 -43 -106.5t-106 -43.5t-105.5 43.5t-42.5 106.5z" />
<glyph unicode="&#x202f;" horiz-adv-x="398" />
<glyph unicode="&#x2039;" horiz-adv-x="688" d="M72 549q171 115 317.5 238.5t149.5 123.5q11 0 17 -7t5 -21q0 -31 -59 -110.5t-201 -235.5q57 -114 94 -218t37 -135q0 -15 -8.5 -24.5t-22.5 -9.5q-23 0 -48 49q-13 27 -23 42q-71 109 -134.5 184.5t-123.5 123.5z" />
<glyph unicode="&#x203a;" horiz-adv-x="688" d="M522 512q-171 -115 -317.5 -238.5t-149.5 -123.5q-12 0 -18 7t-6 21q0 31 59 110t201 236q-57 111 -93 215.5t-36 137.5q0 16 8 25t23 9q23 0 45 -47q14 -29 24 -45q66 -103 131.5 -180.5t128.5 -126.5z" />
<glyph unicode="&#x205f;" horiz-adv-x="498" />
<glyph unicode="&#x2122;" horiz-adv-x="1683" d="M745 1460h222l127 -356l123 356h206v-26l-22 -7q-19 -4 -27 -15t-8 -34v-383q0 -22 8 -33t27 -16l22 -6v-33h-260v33l30 6q18 3 27 15.5t9 33.5v355l-148 -445h-43l-166 457v-367q0 -22 9 -34t27 -15l34 -6v-33h-197v33l35 6q18 4 26.5 16t8.5 33v375q0 21 -9 33.5 t-25 15.5l-36 6v35zM229 1460h457l12 -198h-36q-7 79 -38 116t-92 37v-420q1 -22 8.5 -34t23.5 -15l30 -6v-33h-272v33l30 6q15 3 23 15.5t8 33.5v420h-4q-58 0 -89.5 -38t-37.5 -115h-35z" />
<glyph unicode="&#xe000;" horiz-adv-x="1100" d="M0 1100h1100v-1100h-1100v1100z" />
<glyph unicode="&#xfb01;" horiz-adv-x="1504" d="M1385 332q-87 -196 -164.5 -278.5t-173.5 -82.5q-87 0 -141 55.5t-54 143.5q0 110 97 398q15 43 22 65l23 67q63 184 63 232q0 20 -10.5 34.5t-26.5 14.5q-44 0 -100.5 -79t-116.5 -224l-73 29q80 205 163 296t187 91q92 0 144 -56t52 -155q0 -90 -82 -323 q-14 -42 -22 -64q-8 -25 -24 -70q-79 -229 -79 -276q0 -27 12 -43.5t29 -16.5q37 0 84.5 65t114.5 210zM1190 1554q57 0 97.5 -39.5t40.5 -95.5q0 -58 -40 -98.5t-98 -40.5t-96.5 39.5t-38.5 99.5q0 57 39 96t96 39zM555 1161l-27 -155h226l-17 -91h-225l-123 -710 q-56 -328 -164 -466t-303 -138q-101 0 -157 40.5t-56 112.5q0 56 35.5 90.5t91.5 34.5q51 0 79 -27t28 -77q0 -19 -8.5 -41.5t-8.5 -26.5q0 -7 11 -12.5t26 -5.5q53 0 89.5 82.5t72.5 291.5l145 852h-223l16 91h220q37 288 138.5 418t287.5 130q115 0 180 -49.5t65 -136.5 q0 -63 -33.5 -98t-95.5 -35q-51 0 -80.5 27.5t-29.5 74.5q0 27 12 63t12 44q0 11 -11.5 18.5t-31.5 7.5q-49 0 -79 -61.5t-62 -247.5z" />
<glyph unicode="&#xfb02;" horiz-adv-x="1446" d="M1317 1552l-258 -1178q-2 -8 -5 -24q-28 -126 -28 -196q0 -37 12 -56.5t34 -19.5q41 0 89 60t128 220l75 -32q-87 -193 -171.5 -275t-192.5 -82q-93 0 -151 50.5t-58 130.5q0 51 7 106.5t22 118.5l180 829q10 47 15 82.5t5 50.5q0 54 -39 76.5t-137 22.5h-18l16 88 q138 0 255 7t220 21zM555 1161l-27 -155h226l-17 -91h-225l-123 -710q-56 -328 -164 -466t-303 -138q-101 0 -157 40.5t-56 112.5q0 56 35.5 90.5t91.5 34.5q51 0 79 -27t28 -77q0 -19 -8.5 -41.5t-8.5 -26.5q0 -7 11 -12.5t26 -5.5q53 0 89.5 82.5t72.5 291.5l145 852h-223 l16 91h220q37 288 138.5 418t287.5 130q115 0 180 -49.5t65 -136.5q0 -63 -33.5 -98t-95.5 -35q-51 0 -80.5 27.5t-29.5 74.5q0 27 12 63t12 44q0 11 -11.5 18.5t-31.5 7.5q-49 0 -79 -61.5t-62 -247.5z" />
<glyph unicode="&#xfb03;" horiz-adv-x="2254" d="M2135 332q-87 -196 -164.5 -278.5t-173.5 -82.5q-87 0 -141 55.5t-54 143.5q0 110 97 398q15 43 22 65l23 67q63 184 63 232q0 20 -10.5 34.5t-26.5 14.5q-44 0 -100.5 -79t-116.5 -224l-73 29q80 205 163 296t187 91q92 0 144 -56t52 -155q0 -90 -82 -323 q-14 -42 -22 -64q-8 -25 -24 -70q-79 -229 -79 -276q0 -27 12 -43.5t29 -16.5q37 0 84.5 65t114.5 210zM1940 1554q57 0 97.5 -39.5t40.5 -95.5q0 -58 -40 -98.5t-98 -40.5t-96.5 39.5t-38.5 99.5q0 57 39 96t96 39zM1305 1161l-27 -155h226l-17 -91h-225l-123 -710 q-56 -328 -164 -466t-303 -138q-101 0 -157 40.5t-56 112.5q0 56 35.5 90.5t91.5 34.5q51 0 79 -27t28 -77q0 -19 -8.5 -41.5t-8.5 -26.5q0 -7 11 -12.5t26 -5.5q53 0 89.5 82.5t72.5 291.5l145 852h-223l16 91h220q37 288 138.5 418t287.5 130q115 0 180 -49.5t65 -136.5 q0 -63 -33.5 -98t-95.5 -35q-51 0 -80.5 27.5t-29.5 74.5q0 27 12 63t12 44q0 11 -11.5 18.5t-31.5 7.5q-49 0 -79 -61.5t-62 -247.5zM555 1161l-27 -155h226l-17 -91h-225l-123 -710q-56 -328 -164 -466t-303 -138q-101 0 -157 40.5t-56 112.5q0 56 35.5 90.5t91.5 34.5 q51 0 79 -27t28 -77q0 -19 -8.5 -41.5t-8.5 -26.5q0 -7 11 -12.5t26 -5.5q53 0 89.5 82.5t72.5 291.5l145 852h-223l16 91h220q37 288 138.5 418t287.5 130q115 0 180 -49.5t65 -136.5q0 -63 -33.5 -98t-95.5 -35q-51 0 -80.5 27.5t-29.5 74.5q0 27 12 63t12 44 q0 11 -11.5 18.5t-31.5 7.5q-49 0 -79 -61.5t-62 -247.5z" />
<glyph unicode="&#xfb04;" horiz-adv-x="2196" d="M2067 1552l-258 -1178q-2 -8 -5 -24q-28 -126 -28 -196q0 -37 12 -56.5t34 -19.5q41 0 89 60t128 220l75 -32q-87 -193 -171.5 -275t-192.5 -82q-93 0 -151 50.5t-58 130.5q0 51 7 106.5t22 118.5l180 829q10 47 15 82.5t5 50.5q0 54 -39 76.5t-137 22.5h-18l16 88 q138 0 255 7t220 21zM1305 1161l-27 -155h226l-17 -91h-225l-123 -710q-56 -328 -164 -466t-303 -138q-101 0 -157 40.5t-56 112.5q0 56 35.5 90.5t91.5 34.5q51 0 79 -27t28 -77q0 -19 -8.5 -41.5t-8.5 -26.5q0 -7 11 -12.5t26 -5.5q53 0 89.5 82.5t72.5 291.5l145 852 h-223l16 91h220q37 288 138.5 418t287.5 130q115 0 180 -49.5t65 -136.5q0 -63 -33.5 -98t-95.5 -35q-51 0 -80.5 27.5t-29.5 74.5q0 27 12 63t12 44q0 11 -11.5 18.5t-31.5 7.5q-49 0 -79 -61.5t-62 -247.5zM555 1161l-27 -155h226l-17 -91h-225l-123 -710 q-56 -328 -164 -466t-303 -138q-101 0 -157 40.5t-56 112.5q0 56 35.5 90.5t91.5 34.5q51 0 79 -27t28 -77q0 -19 -8.5 -41.5t-8.5 -26.5q0 -7 11 -12.5t26 -5.5q53 0 89.5 82.5t72.5 291.5l145 852h-223l16 91h220q37 288 138.5 418t287.5 130q115 0 180 -49.5t65 -136.5 q0 -63 -33.5 -98t-95.5 -35q-51 0 -80.5 27.5t-29.5 74.5q0 27 12 63t12 44q0 11 -11.5 18.5t-31.5 7.5q-49 0 -79 -61.5t-62 -247.5z" />
</font>
</defs>
</svg>
