<?xml version="1.0" encoding="utf-8"?>
<!-- Generator: Adobe Illustrator 15.0.0, SVG Export Plug-In . SVG Version: 6.00 Build 0)  -->
<!DOCTYPE svg PUBLIC "-//W3C//DTD SVG 1.1//EN" "http://www.w3.org/Graphics/SVG/1.1/DTD/svg11.dtd">
<svg version="1.1" id="Layer_1" xmlns="http://www.w3.org/2000/svg" xmlns:xlink="http://www.w3.org/1999/xlink" x="0px" y="0px"
	 width="130px" height="150.001px" viewBox="-15 0 130 150.001" enable-background="new -15 0 130 150.001" xml:space="preserve">
<path fill="#36C6F4" d="M115,127.369l-17.684-5.658c0,0-6.547-4.764-8.513-5.361c-1.964-0.596-1.311-0.893-3.93-7.145
	c-2.618-6.254-3.929-2.682-3.929-2.682L78,97.59c0,0,3.542-6.447,5.581-16.023c1.938-0.324,1.854-2.328,3.021-3.035
	c1.31-0.795,2.62-2.334,3.057-5.411c0.437-3.077-0.22-4.912,0.165-6.75c0.381-1.835,2.346-7.493,1.638-9.331
	c2.019-1.488,3.709-10.57,3.056-12.457c-0.329-0.943-1.256-0.744-1.802,0.943s-2.949,3.275-2.949,3.275l0.017-0.134l-1.162,3.12
	c0.637-4.003,1.059-6.717,1.059-6.717s-0.823-9.654-1.651-12.12c-0.823-2.467-3.537-13.191-7.073-16.623
	C77.416,12.895,66.569,5.71,64.208,4.102c-2.355-1.607-11.095-3.893-18.953-4.09c-7.858-0.199-15.389,2.183-23.25,5.955
	C14.146,9.738,9.671,16.29,7.378,19.565c-2.291,3.276-5.128,13.302-4.91,17.075c0.218,3.771,0.546,11.514,0.546,11.514l0.434-1.488
	l0.764,6.303c0,0-2.402-1.588-2.948-3.274c-0.543-1.688-1.474-1.888-1.8-0.943c-0.655,1.886,1.037,10.968,3.057,12.457
	c-0.711,1.837,1.257,7.495,1.638,9.331c0.381,1.837-0.274,3.673,0.164,6.75c0.436,3.078,1.746,4.617,3.055,5.41
	c1.312,0.795,1.037,3.227,3.82,3.078c3.495-0.186,3.057-1.984,3.057-1.984l2.402,1.189c0,0,0.871,4.17,1.308,5.758
	c0.437,1.588,1.747,13.697,1.747,13.697c-1.747,0-3.709,6.75-4.802,8.734c-1.965,0.797-3.059,4.371-3.059,4.371
	s-2.836,1.984-8.731,5.955C-2.775,127.467-15,128.855-15,128.855l0.328,21.146h129.669v-22.632H115z"/>
</svg>
