<?xml version="1.0" encoding="utf-8"?>
<!-- Generator: Adobe Illustrator 15.0.0, SVG Export Plug-In . SVG Version: 6.00 Build 0)  -->
<!DOCTYPE svg PUBLIC "-//W3C//DTD SVG 1.1//EN" "http://www.w3.org/Graphics/SVG/1.1/DTD/svg11.dtd">
<svg version="1.1" id="Layer_1" xmlns="http://www.w3.org/2000/svg" xmlns:xlink="http://www.w3.org/1999/xlink" x="0px" y="0px"
	 width="100px" height="150px" viewBox="86.587 98.299 100 150" enable-background="new 86.587 98.299 100 150"
	 xml:space="preserve">
<path fill="#36C6F4" d="M186.587,225.668l-13.602-5.659c0,0-5.037-4.764-6.55-5.36c-1.51-0.596-1.007-0.893-3.022-7.146
	c-2.014-6.254-3.022-2.681-3.022-2.681l-2.266-8.933c0,0,2.725-6.448,4.293-16.025c1.491-0.323,1.426-2.327,2.324-3.034
	c1.008-0.795,2.016-2.334,2.352-5.411c0.335-3.077-0.169-4.912,0.126-6.75c0.293-1.835,1.806-7.493,1.26-9.331
	c1.553-1.488,2.854-10.571,2.351-12.457c-0.253-0.943-0.966-0.745-1.385,0.943c-0.42,1.687-2.269,3.275-2.269,3.275l0.013-0.133
	l-0.895,3.12c0.49-4.003,0.815-6.717,0.815-6.717s-0.634-9.653-1.271-12.119c-0.633-2.467-2.721-13.191-5.441-16.623
	c-2.722-3.433-11.066-10.618-12.882-12.226c-1.813-1.608-8.536-3.893-14.581-4.091c-6.045-0.198-11.838,2.183-17.884,5.956
	c-6.046,3.771-9.489,10.323-11.252,13.598c-1.763,3.277-3.946,13.302-3.778,17.075c0.168,3.771,0.42,11.514,0.42,11.514l0.335-1.488
	l0.587,6.303c0,0-1.848-1.588-2.267-3.275c-0.419-1.688-1.134-1.887-1.385-0.943c-0.504,1.886,0.798,10.968,2.351,12.457
	c-0.546,1.837,0.967,7.495,1.26,9.331c0.293,1.837-0.21,3.673,0.126,6.75c0.335,3.077,1.343,4.616,2.35,5.41
	c1.008,0.795,0.798,3.227,2.939,3.077c2.688-0.185,2.351-1.984,2.351-1.984l1.847,1.19c0,0,0.671,4.169,1.007,5.758
	c0.336,1.588,1.343,13.698,1.343,13.698c-1.343,0-2.854,6.75-3.694,8.734c-1.512,0.796-2.352,4.37-2.352,4.37
	s-2.183,1.984-6.717,5.955c-4.533,3.969-13.938,5.359-13.938,5.359l0.252,21.143h99.748V225.668L186.587,225.668z"/>
</svg>
